<svg width="387" height="387" viewBox="0 0 387 387" fill="none" xmlns="http://www.w3.org/2000/svg">
<path d="M162.724 121.26H193.315V152.589H162.724V121.26Z" fill="white"/>
<path d="M223.907 121.26H193.315V152.589H223.907V121.26Z" fill="white"/>
<path d="M147.981 101.726H178.572V133.054H147.981V101.726Z" fill="white"/>
<path d="M238.649 101.726H208.058V133.054H238.649V101.726Z" fill="white"/>
<path d="M133.238 81.8229H163.829V113.151H133.238V81.8229Z" fill="white"/>
<path d="M253.392 81.8229H222.801V113.151H253.392V81.8229Z" fill="white"/>
<path d="M118.495 62.2886H149.087V93.6171H118.495V62.2886Z" fill="white"/>
<path d="M268.504 62.2886H237.912V93.6171H268.504V62.2886Z" fill="white"/>
<path d="M118.495 62.2886H149.087V93.6171H118.495V62.2886Z" fill="white"/>
<path d="M268.504 62.2886H237.912V93.6171H268.504V62.2886Z" fill="white"/>
<path d="M118.495 31.3286H149.087V62.6571H118.495V31.3286Z" fill="white"/>
<path d="M149.087 0H178.572V31.3286H149.087V0Z" fill="white"/>
<path d="M178.572 0H208.427V31.3286H178.572V0Z" fill="white"/>
<path d="M208.427 0H237.912V31.3286H208.427V0Z" fill="white"/>
<path d="M179.309 31.3286H209.901V62.6571H179.309V31.3286Z" fill="white"/>
<path d="M268.504 31.3286H237.912V62.6571H268.504V31.3286Z" fill="white"/>
<path d="M265.74 162.724V193.316H234.411V162.724H265.74Z" fill="white"/>
<path d="M265.74 223.907V193.316H234.411V223.907H265.74Z" fill="white"/>
<path d="M285.274 147.981V178.573H253.946V147.981H285.274Z" fill="white"/>
<path d="M285.274 238.65V208.059H253.946V238.65H285.274Z" fill="white"/>
<path d="M305.177 133.239V163.83H273.849V133.239L305.177 133.239Z" fill="white"/>
<path d="M305.177 253.393V222.801H273.849L273.849 253.393H305.177Z" fill="white"/>
<path d="M324.711 118.496V149.087H293.383V118.496H324.711Z" fill="white"/>
<path d="M324.711 268.504V237.913H293.383V268.504H324.711Z" fill="white"/>
<path d="M324.711 118.496V149.087H293.383V118.496H324.711Z" fill="white"/>
<path d="M324.711 268.504V237.913H293.383V268.504H324.711Z" fill="white"/>
<path d="M355.671 118.496V149.087H324.343V118.496H355.671Z" fill="white"/>
<path d="M387 149.087V178.573H355.671V149.087H387Z" fill="white"/>
<path d="M387 178.573V208.427H355.671V178.573H387Z" fill="white"/>
<path d="M387 208.427V237.913L355.671 237.913V208.427H387Z" fill="white"/>
<path d="M355.671 179.31V209.901H324.343V179.31H355.671Z" fill="white"/>
<path d="M355.671 268.504V237.913H324.343V268.504H355.671Z" fill="white"/>
<path d="M162.724 265.74H193.315V234.411H162.724V265.74Z" fill="white"/>
<path d="M223.907 265.74H193.315V234.411H223.907V265.74Z" fill="white"/>
<path d="M147.981 285.274H178.572V253.946H147.981V285.274Z" fill="white"/>
<path d="M238.649 285.274H208.058V253.946H238.649V285.274Z" fill="white"/>
<path d="M133.238 305.177H163.829V273.849H133.238V305.177Z" fill="white"/>
<path d="M253.392 305.177H222.801V273.849H253.392V305.177Z" fill="white"/>
<path d="M118.495 324.711H149.087V293.383H118.495V324.711Z" fill="white"/>
<path d="M268.504 324.711H237.912V293.383H268.504V324.711Z" fill="white"/>
<path d="M118.495 324.711H149.087V293.383H118.495V324.711Z" fill="white"/>
<path d="M268.504 324.711H237.912V293.383H268.504V324.711Z" fill="white"/>
<path d="M118.495 355.671H149.087V324.343H118.495V355.671Z" fill="white"/>
<path d="M149.087 387H178.572V355.671H149.087V387Z" fill="white"/>
<path d="M178.572 387H208.427V355.671H178.572V387Z" fill="white"/>
<path d="M208.427 387H237.912V355.671H208.427V387Z" fill="white"/>
<path d="M179.309 355.671H209.901V324.343H179.309V355.671Z" fill="white"/>
<path d="M268.504 355.671H237.912V324.343H268.504V355.671Z" fill="white"/>
<path d="M121.26 162.724V193.316H152.589V162.724H121.26Z" fill="white"/>
<path d="M121.26 223.907V193.316H152.589V223.907H121.26Z" fill="white"/>
<path d="M101.726 147.981V178.573H133.054V147.981H101.726Z" fill="white"/>
<path d="M101.726 238.65V208.059H133.054V238.65H101.726Z" fill="white"/>
<path d="M81.8229 133.239V163.83L113.151 163.83L113.151 133.239H81.8229Z" fill="white"/>
<path d="M81.8229 253.393L81.8229 222.801H113.151V253.393H81.8229Z" fill="white"/>
<path d="M62.2886 118.496V149.087H93.6171V118.496H62.2886Z" fill="white"/>
<path d="M62.2886 268.504V237.913H93.6172L93.6171 268.504H62.2886Z" fill="white"/>
<path d="M62.2886 118.496V149.087H93.6171V118.496H62.2886Z" fill="white"/>
<path d="M62.2886 268.504V237.913H93.6172L93.6171 268.504H62.2886Z" fill="white"/>
<path d="M31.3286 118.496L31.3286 149.087H62.6571V118.496H31.3286Z" fill="white"/>
<path d="M1.30497e-06 149.087L1.61109e-08 178.573H31.3286V149.087H1.30497e-06Z" fill="white"/>
<path d="M1.61109e-08 178.573L0 208.427H31.3286V178.573H1.61109e-08Z" fill="white"/>
<path d="M0 208.427L1.61109e-08 237.913H31.3286V208.427H0Z" fill="white"/>
<path d="M31.3286 179.31V209.901H62.6571V179.31H31.3286Z" fill="white"/>
<path d="M31.3286 268.504V237.913H62.6572L62.6571 268.504H31.3286Z" fill="white"/>
</svg>
