<svg width="201" height="42" viewBox="0 0 201 42" fill="none" xmlns="http://www.w3.org/2000/svg">
<path d="M143.526 17.9719V14H144.975C145.397 14 145.731 14.1084 145.977 14.3252C146.225 14.5402 146.348 14.8335 146.348 15.2049C146.348 15.4519 146.291 15.6661 146.175 15.8473C146.061 16.0268 145.899 16.1663 145.689 16.2658C145.481 16.3636 145.236 16.4124 144.954 16.4124H144.015V17.9719H143.526ZM144.015 15.9859H144.959C145.239 15.9859 145.46 15.9166 145.621 15.778C145.784 15.6376 145.865 15.4466 145.865 15.2049C145.865 14.9632 145.784 14.773 145.621 14.6344C145.46 14.4958 145.239 14.4265 144.959 14.4265H144.015V15.9859Z" fill="white"/>
<path d="M147.89 18.0359C147.626 18.0359 147.393 17.9737 147.192 17.8493C146.993 17.7231 146.838 17.5498 146.726 17.3294C146.615 17.1091 146.56 16.8558 146.56 16.5697C146.56 16.2818 146.615 16.0268 146.726 15.8047C146.838 15.5825 146.993 15.4084 147.192 15.2822C147.393 15.156 147.626 15.0929 147.89 15.0929C148.156 15.0929 148.388 15.156 148.587 15.2822C148.786 15.4084 148.941 15.5825 149.051 15.8047C149.163 16.0268 149.22 16.2818 149.22 16.5697C149.22 16.8558 149.163 17.1091 149.051 17.3294C148.941 17.5498 148.786 17.7231 148.587 17.8493C148.388 17.9737 148.156 18.0359 147.89 18.0359ZM147.89 17.6253C148.161 17.6253 148.373 17.5294 148.525 17.3374C148.677 17.1437 148.753 16.8878 148.753 16.5697C148.753 16.2481 148.676 15.9904 148.522 15.7967C148.37 15.6012 148.159 15.5034 147.89 15.5034C147.62 15.5034 147.409 15.6003 147.255 15.794C147.103 15.9877 147.027 16.2463 147.027 16.5697C147.027 16.8896 147.103 17.1455 147.255 17.3374C147.407 17.5294 147.618 17.6253 147.89 17.6253Z" fill="white"/>
<path d="M150.283 17.9719L149.393 15.1569H149.876L150.237 16.3938C150.288 16.5644 150.336 16.7385 150.381 16.9163C150.428 17.094 150.475 17.2699 150.522 17.4441C150.569 17.2699 150.616 17.094 150.663 16.9163C150.71 16.7385 150.759 16.5644 150.81 16.3938L151.173 15.1569H151.629L151.988 16.3938C152.036 16.5626 152.083 16.735 152.129 16.9109C152.176 17.0869 152.223 17.2601 152.27 17.4307C152.317 17.2601 152.364 17.0869 152.411 16.9109C152.458 16.735 152.507 16.5626 152.557 16.3938L152.926 15.1569H153.41L152.519 17.9719H152.036L151.659 16.6923C151.614 16.5377 151.571 16.3805 151.529 16.2205C151.487 16.0588 151.445 15.8989 151.401 15.7407C151.36 15.8989 151.317 16.0588 151.274 16.2205C151.23 16.3805 151.186 16.5377 151.141 16.6923L150.756 17.9719H150.283Z" fill="white"/>
<path d="M154.913 18.0359C154.633 18.0359 154.393 17.9728 154.194 17.8466C153.997 17.7204 153.846 17.5471 153.741 17.3268C153.636 17.1046 153.583 16.8523 153.583 16.5697C153.583 16.2836 153.638 16.0295 153.749 15.8073C153.859 15.5852 154.012 15.411 154.207 15.2849C154.403 15.1569 154.627 15.0929 154.88 15.0929C155.146 15.0929 155.377 15.1551 155.572 15.2795C155.768 15.4039 155.918 15.5772 156.023 15.7993C156.13 16.0215 156.183 16.2783 156.183 16.5697V16.695H154.039C154.05 16.9705 154.13 17.1944 154.281 17.3668C154.431 17.5391 154.642 17.6253 154.913 17.6253C155.117 17.6253 155.284 17.5791 155.412 17.4867C155.543 17.3943 155.629 17.2752 155.673 17.1295H156.134C156.098 17.309 156.023 17.4672 155.909 17.604C155.795 17.7391 155.652 17.8448 155.48 17.9212C155.31 17.9976 155.121 18.0359 154.913 18.0359ZM154.045 16.3058H155.722C155.696 16.0588 155.609 15.8624 155.458 15.7167C155.308 15.571 155.116 15.4981 154.88 15.4981C154.645 15.4981 154.453 15.571 154.305 15.7167C154.157 15.8624 154.07 16.0588 154.045 16.3058Z" fill="white"/>
<path d="M156.709 17.9719V15.1569H157.149V15.5994H157.16C157.212 15.4537 157.296 15.3364 157.41 15.2475C157.524 15.1587 157.67 15.1143 157.849 15.1143C157.891 15.1143 157.929 15.116 157.963 15.1196C157.999 15.1231 158.026 15.1267 158.045 15.1303V15.5834C158.026 15.5781 157.991 15.5719 157.939 15.5648C157.888 15.5559 157.829 15.5514 157.762 15.5514C157.603 15.5514 157.465 15.6065 157.347 15.7167C157.23 15.8269 157.171 16.001 157.171 16.2392V17.9719H156.709Z" fill="white"/>
<path d="M159.629 18.0359C159.349 18.0359 159.109 17.9728 158.91 17.8466C158.713 17.7204 158.562 17.5471 158.457 17.3268C158.352 17.1046 158.3 16.8523 158.3 16.5697C158.3 16.2836 158.355 16.0295 158.465 15.8073C158.576 15.5852 158.728 15.411 158.924 15.2849C159.119 15.1569 159.344 15.0929 159.597 15.0929C159.863 15.0929 160.093 15.1551 160.289 15.2795C160.484 15.4039 160.634 15.5772 160.739 15.7993C160.846 16.0215 160.899 16.2783 160.899 16.5697V16.695H158.756C158.766 16.9705 158.847 17.1944 158.997 17.3668C159.147 17.5391 159.358 17.6253 159.629 17.6253C159.834 17.6253 160 17.5791 160.129 17.4867C160.259 17.3943 160.346 17.2752 160.389 17.1295H160.851C160.814 17.309 160.739 17.4672 160.625 17.604C160.511 17.7391 160.368 17.8448 160.197 17.9212C160.026 17.9976 159.837 18.0359 159.629 18.0359ZM158.761 16.3058H160.438C160.413 16.0588 160.325 15.8624 160.175 15.7167C160.025 15.571 159.832 15.4981 159.597 15.4981C159.362 15.4981 159.17 15.571 159.021 15.7167C158.873 15.8624 158.786 16.0588 158.761 16.3058Z" fill="white"/>
<path d="M162.522 18.0252C162.274 18.0252 162.056 17.9639 161.868 17.8413C161.682 17.7169 161.537 17.5454 161.434 17.3268C161.331 17.1064 161.279 16.8523 161.279 16.5644C161.279 16.2747 161.331 16.0206 161.434 15.802C161.537 15.5816 161.682 15.4101 161.868 15.2875C162.056 15.1649 162.274 15.1036 162.522 15.1036C162.709 15.1036 162.881 15.1427 163.041 15.2209C163.2 15.2973 163.325 15.4146 163.418 15.5728H163.423V14H163.884V17.9719H163.434V17.5454H163.429C163.325 17.7071 163.195 17.8279 163.038 17.9079C162.88 17.9861 162.709 18.0252 162.522 18.0252ZM162.593 17.6173C162.859 17.6173 163.069 17.5214 163.225 17.3294C163.382 17.1375 163.461 16.8825 163.461 16.5644C163.461 16.2463 163.382 15.9913 163.225 15.7993C163.069 15.6056 162.859 15.5088 162.593 15.5088C162.345 15.5088 162.141 15.5985 161.982 15.778C161.825 15.9575 161.746 16.2196 161.746 16.5644C161.746 16.9092 161.825 17.1713 161.982 17.3508C162.141 17.5285 162.345 17.6173 162.593 17.6173Z" fill="white"/>
<path d="M166.017 17.9719V14H167.477C167.883 14 168.201 14.0951 168.433 14.2852C168.664 14.4754 168.78 14.7322 168.78 15.0556C168.78 15.2831 168.722 15.4661 168.606 15.6047C168.491 15.7434 168.33 15.8464 168.123 15.914V15.9193C168.353 15.9566 168.548 16.0517 168.707 16.2045C168.866 16.3556 168.946 16.5733 168.946 16.8576C168.946 17.197 168.826 17.4681 168.587 17.6707C168.349 17.8715 167.986 17.9719 167.499 17.9719H166.017ZM166.506 17.5454H167.499C167.805 17.5454 168.039 17.4894 168.202 17.3774C168.367 17.2637 168.449 17.0966 168.449 16.8763C168.449 16.6559 168.369 16.4826 168.21 16.3565C168.051 16.2285 167.823 16.1645 167.526 16.1645H166.506V17.5454ZM166.506 15.7434H167.496C167.748 15.7434 167.944 15.6847 168.085 15.5674C168.226 15.4484 168.297 15.2875 168.297 15.0849C168.297 14.8823 168.226 14.7224 168.085 14.6051C167.944 14.486 167.748 14.4265 167.496 14.4265H166.506V15.7434Z" fill="white"/>
<path d="M169.529 19.0861V18.6863H169.811C169.981 18.6863 170.111 18.5734 170.199 18.3477L170.357 17.9479L169.247 15.1569H169.746L170.365 16.7776C170.405 16.8825 170.444 16.9882 170.482 17.0949C170.521 17.1997 170.559 17.3046 170.596 17.4094C170.633 17.3046 170.671 17.1997 170.709 17.0949C170.749 16.9882 170.789 16.8825 170.829 16.7776L171.437 15.1569H171.928L170.606 18.4943C170.532 18.6827 170.426 18.8284 170.289 18.9315C170.151 19.0346 169.992 19.0861 169.811 19.0861H169.529Z" fill="white"/>
<path d="M146.44 28C145.517 28 144.793 27.7789 144.27 27.3368C143.75 26.8913 143.49 26.2772 143.49 25.4945H144.785C144.792 25.9366 144.94 26.2822 145.23 26.5311C145.523 26.78 145.93 26.9044 146.45 26.9044C146.914 26.9044 147.287 26.8095 147.571 26.6195C147.854 26.4263 147.996 26.1692 147.996 25.8482C147.996 25.5895 147.889 25.3798 147.676 25.2194C147.462 25.0556 147.107 24.918 146.61 24.8067L145.81 24.6298C145.067 24.4628 144.518 24.2155 144.165 23.888C143.811 23.5605 143.635 23.1396 143.635 22.6254C143.635 22.1898 143.748 21.8082 143.975 21.4807C144.205 21.1532 144.525 20.8994 144.935 20.7192C145.348 20.5358 145.829 20.4441 146.375 20.4441C147.209 20.4441 147.869 20.6521 148.356 21.068C148.846 21.484 149.101 22.0555 149.121 22.7826H147.866C147.839 22.3961 147.692 22.0932 147.426 21.8737C147.159 21.6543 146.807 21.5446 146.37 21.5446C145.957 21.5446 145.619 21.6396 145.355 21.8295C145.092 22.0195 144.96 22.2635 144.96 22.5615C144.96 22.8072 145.063 23.007 145.27 23.1609C145.48 23.3116 145.829 23.4409 146.315 23.549L147.071 23.721C147.844 23.888 148.411 24.1369 148.771 24.4677C149.131 24.7985 149.311 25.2325 149.311 25.7696C149.311 26.2248 149.194 26.6195 148.961 26.9536C148.728 27.2876 148.396 27.5464 147.966 27.7298C147.536 27.9099 147.027 28 146.44 28Z" fill="white"/>
<path d="M152.567 28C152.04 28 151.583 27.8837 151.197 27.6512C150.81 27.4187 150.511 27.0993 150.301 26.6932C150.095 26.2838 149.991 25.8171 149.991 25.293C149.991 24.7657 150.098 24.299 150.311 23.8929C150.528 23.4835 150.827 23.1625 151.207 22.93C151.587 22.6942 152.024 22.5763 152.517 22.5763C153.024 22.5763 153.467 22.6909 153.847 22.9202C154.227 23.1494 154.523 23.4671 154.733 23.8733C154.943 24.2761 155.048 24.7428 155.048 25.2734V25.6124H151.227C151.243 26.0349 151.37 26.3755 151.607 26.6342C151.843 26.893 152.174 27.0224 152.597 27.0224C152.914 27.0224 153.176 26.9552 153.382 26.8209C153.589 26.6834 153.729 26.5032 153.802 26.2805H154.983C154.916 26.6179 154.769 26.9159 154.543 27.1747C154.319 27.4334 154.037 27.6365 153.697 27.7838C153.357 27.9279 152.98 28 152.567 28ZM151.237 24.7576H153.837C153.797 24.3875 153.661 24.096 153.427 23.8831C153.197 23.6669 152.9 23.5588 152.537 23.5588C152.17 23.5588 151.872 23.6669 151.642 23.8831C151.415 24.096 151.28 24.3875 151.237 24.7576Z" fill="white"/>
<path d="M157.168 24.9492V27.8821H155.908V22.6942H157.148V23.4901C157.515 22.8907 158.055 22.591 158.769 22.591C159.322 22.591 159.774 22.7662 160.124 23.1167C160.477 23.4671 160.654 23.9748 160.654 24.6396V27.8821H159.389V24.8362C159.389 24.4562 159.295 24.168 159.109 23.9715C158.922 23.775 158.66 23.6767 158.324 23.6767C157.993 23.6767 157.718 23.7783 157.498 23.9813C157.278 24.1844 157.168 24.507 157.168 24.9492Z" fill="white"/>
<path d="M163.82 27.9853C163.36 27.9853 162.958 27.8723 162.615 27.6463C162.271 27.4203 162.004 27.1059 161.814 26.703C161.628 26.2969 161.534 25.8236 161.534 25.2832C161.534 24.7526 161.629 24.2859 161.819 23.8831C162.009 23.477 162.276 23.1609 162.62 22.9349C162.963 22.7056 163.36 22.591 163.81 22.591C164.153 22.591 164.462 22.6598 164.735 22.7973C165.009 22.9349 165.23 23.1462 165.4 23.4311H165.41V20.562H166.671V27.8821H165.43V27.0911H165.42C165.254 27.3925 165.03 27.6168 164.75 27.7642C164.473 27.9116 164.163 27.9853 163.82 27.9853ZM164.115 26.9487C164.528 26.9487 164.859 26.798 165.105 26.4967C165.355 26.1921 165.48 25.7876 165.48 25.2832C165.48 24.7788 165.355 24.376 165.105 24.0747C164.859 23.7701 164.528 23.6178 164.115 23.6178C163.725 23.6178 163.41 23.7619 163.17 24.0501C162.93 24.3383 162.81 24.7494 162.81 25.2832C162.81 25.8204 162.93 26.233 163.17 26.5212C163.41 26.8062 163.725 26.9487 164.115 26.9487Z" fill="white"/>
<path d="M167.296 27.8821L169.957 20.562H171.617L174.268 27.8821H172.812L172.217 26.1331H169.326L168.716 27.8821H167.296ZM169.697 25.0671H171.857L171.507 24.0354C171.397 23.698 171.284 23.3459 171.167 22.9791C171.054 22.6123 170.927 22.198 170.787 21.7362C170.647 22.198 170.518 22.6123 170.402 22.9791C170.285 23.3459 170.17 23.698 170.057 24.0354L169.697 25.0671Z" fill="white"/>
<path d="M174.893 27.8821V22.6942H176.108V23.5539H176.123C176.22 23.2592 176.372 23.0348 176.578 22.8809C176.788 22.7237 177.063 22.6451 177.404 22.6451C177.49 22.6451 177.567 22.6483 177.634 22.6549C177.704 22.6582 177.764 22.6614 177.814 22.6647V23.7652C177.767 23.7586 177.687 23.7504 177.574 23.7406C177.46 23.7308 177.342 23.7259 177.218 23.7259C176.918 23.7259 176.665 23.8274 176.458 24.0305C176.255 24.2335 176.153 24.5381 176.153 24.9442V27.8821H174.893Z" fill="white"/>
<path d="M180.809 28C180.296 28 179.844 27.8854 179.454 27.6561C179.067 27.4268 178.766 27.1091 178.549 26.703C178.335 26.2969 178.229 25.8269 178.229 25.293C178.229 24.7592 178.335 24.2892 178.549 23.8831C178.766 23.4737 179.067 23.1543 179.454 22.9251C179.844 22.6925 180.296 22.5763 180.809 22.5763C181.253 22.5763 181.648 22.6614 181.995 22.8317C182.342 22.9988 182.62 23.2313 182.83 23.5294C183.043 23.8241 183.168 24.1647 183.205 24.5512H181.97C181.923 24.2728 181.801 24.0468 181.605 23.8733C181.411 23.6964 181.151 23.608 180.824 23.608C180.411 23.608 180.088 23.7603 179.854 24.0648C179.621 24.3694 179.504 24.7788 179.504 25.293C179.504 25.804 179.621 26.2117 179.854 26.5163C180.088 26.8177 180.411 26.9683 180.824 26.9683C181.155 26.9683 181.411 26.8832 181.595 26.7128C181.778 26.5393 181.9 26.3084 181.96 26.0201H183.205C183.175 26.4001 183.053 26.739 182.84 27.0371C182.63 27.3351 182.35 27.5709 182 27.7445C181.653 27.9148 181.256 28 180.809 28Z" fill="white"/>
<path d="M185.736 27.9656C185.209 27.9656 184.772 27.8362 184.425 27.5775C184.082 27.3155 183.91 26.9257 183.91 26.4083C183.91 26.0152 184.007 25.7123 184.2 25.4994C184.397 25.2832 184.652 25.126 184.966 25.0278C185.282 24.9295 185.622 24.8624 185.986 24.8263C186.476 24.7707 186.818 24.7215 187.011 24.6789C187.204 24.6364 187.301 24.5267 187.301 24.3498V24.3105C187.301 24.0878 187.214 23.906 187.041 23.7652C186.871 23.6243 186.636 23.5539 186.336 23.5539C186.029 23.5539 185.779 23.6243 185.586 23.7652C185.396 23.906 185.292 24.0861 185.276 24.3056H184.06C184.09 23.7914 184.309 23.3771 184.715 23.0626C185.122 22.7482 185.671 22.591 186.361 22.591C187.048 22.591 187.585 22.7482 187.971 23.0626C188.358 23.3771 188.551 23.8045 188.551 24.3449V27.8821H187.311V27.1501H187.291C187.164 27.3793 186.981 27.5726 186.741 27.7298C186.501 27.887 186.166 27.9656 185.736 27.9656ZM186.046 27.0469C186.459 27.0469 186.773 26.9421 186.986 26.7325C187.199 26.5196 187.306 26.2625 187.306 25.9612V25.4011C187.229 25.4503 187.081 25.4961 186.861 25.5387C186.641 25.578 186.401 25.6173 186.141 25.6566C185.871 25.6959 185.636 25.7712 185.436 25.8826C185.239 25.9907 185.141 26.1626 185.141 26.3984C185.141 26.6015 185.222 26.7603 185.386 26.875C185.549 26.9896 185.769 27.0469 186.046 27.0469Z" fill="white"/>
<path d="M191.707 27.9853C191.247 27.9853 190.845 27.8723 190.502 27.6463C190.159 27.4203 189.892 27.1059 189.702 26.703C189.515 26.2969 189.422 25.8236 189.422 25.2832C189.422 24.7526 189.517 24.2859 189.707 23.8831C189.897 23.477 190.164 23.1609 190.507 22.9349C190.85 22.7056 191.247 22.591 191.697 22.591C192.041 22.591 192.349 22.6598 192.623 22.7973C192.896 22.9349 193.118 23.1462 193.288 23.4311H193.298V20.562H194.558V27.8821H193.318V27.0911H193.308C193.141 27.3925 192.918 27.6168 192.638 27.7642C192.361 27.9116 192.051 27.9853 191.707 27.9853ZM192.002 26.9487C192.416 26.9487 192.746 26.798 192.993 26.4967C193.243 26.1921 193.368 25.7876 193.368 25.2832C193.368 24.7788 193.243 24.376 192.993 24.0747C192.746 23.7701 192.416 23.6178 192.002 23.6178C191.612 23.6178 191.297 23.7619 191.057 24.0501C190.817 24.3383 190.697 24.7494 190.697 25.2832C190.697 25.8204 190.817 26.233 191.057 26.5212C191.297 26.8062 191.612 26.9487 192.002 26.9487Z" fill="white"/>
<path d="M198.009 28C197.482 28 197.025 27.8837 196.639 27.6512C196.252 27.4187 195.953 27.0993 195.743 26.6932C195.537 26.2838 195.433 25.8171 195.433 25.293C195.433 24.7657 195.54 24.299 195.753 23.8929C195.97 23.4835 196.269 23.1625 196.649 22.93C197.029 22.6942 197.465 22.5763 197.959 22.5763C198.466 22.5763 198.909 22.6909 199.289 22.9202C199.669 23.1494 199.964 23.4671 200.175 23.8733C200.385 24.2761 200.49 24.7428 200.49 25.2734V25.6124H196.669C196.685 26.0349 196.812 26.3755 197.049 26.6342C197.285 26.893 197.616 27.0224 198.039 27.0224C198.356 27.0224 198.617 26.9552 198.824 26.8209C199.031 26.6834 199.171 26.5032 199.244 26.2805H200.425C200.358 26.6179 200.211 26.9159 199.984 27.1747C199.761 27.4334 199.479 27.6365 199.139 27.7838C198.799 27.9279 198.422 28 198.009 28ZM196.679 24.7576H199.279C199.239 24.3875 199.103 24.096 198.869 23.8831C198.639 23.6669 198.342 23.5588 197.979 23.5588C197.612 23.5588 197.314 23.6669 197.084 23.8831C196.857 24.096 196.722 24.3875 196.679 24.7576Z" fill="white"/>
<path d="M58.1492 26.9666H59.5323V28.3497H58.1492V26.9666ZM58.1492 25.5835H59.5323V26.9666H58.1492V25.5835ZM58.1492 24.2005H59.5323V25.5835H58.1492V24.2005ZM56.7662 25.5835H58.1492V26.9666H56.7662V25.5835ZM56.7662 24.2005H58.1492V25.5835H56.7662V24.2005ZM56.7662 22.8174H58.1492V24.2005H56.7662V22.8174ZM55.3831 24.2005H56.7662V25.5835H55.3831V24.2005ZM55.3831 22.8174H56.7662V24.2005H55.3831V22.8174ZM59.5323 24.2005H60.9154V25.5835H59.5323V24.2005ZM59.5323 25.5835H60.9154V26.9666H59.5323V25.5835ZM59.5323 22.8174H60.9154V24.2005H59.5323V22.8174ZM60.9154 22.8174H62.2985V24.2005H60.9154V22.8174ZM60.9154 24.2005H62.2985V25.5835H60.9154V24.2005ZM62.2985 22.8174H63.6815V24.2005H62.2985V22.8174ZM54 22.8174H55.3831V24.2005H54V22.8174ZM60.9154 14.5189H62.2985V15.902H60.9154V14.5189ZM62.2985 14.5189H63.6815V15.902H62.2985V14.5189ZM62.2985 15.902H63.6815V17.2851H62.2985V15.902ZM62.2985 17.2851H63.6815V18.6681H62.2985V17.2851ZM62.2985 18.6681H63.6815V20.0512H62.2985V18.6681ZM62.2985 20.0512H63.6815V21.4343H62.2985V20.0512ZM60.9154 20.0512H62.2985V21.4343H60.9154V20.0512ZM60.9154 21.4343H62.2985V22.8174H60.9154V21.4343ZM60.9154 18.6681H62.2985V20.0512H60.9154V18.6681ZM60.9154 17.2851H62.2985V18.6681H60.9154V17.2851ZM60.9154 15.902H62.2985V17.2851H60.9154V15.902ZM62.2985 21.4343H63.6815V22.8174H62.2985V21.4343ZM55.3831 21.4343H56.7662V22.8174H55.3831V21.4343ZM54 21.4343H55.3831V22.8174H54V21.4343ZM54 20.0512H55.3831V21.4343H54V20.0512ZM55.3831 20.0512H56.7662V21.4343H55.3831V20.0512ZM55.3831 18.6681H56.7662V20.0512H55.3831V18.6681ZM54 18.6681H55.3831V20.0512H54V18.6681ZM54 17.2851H55.3831V18.6681H54V17.2851ZM55.3831 17.2851H56.7662V18.6681H55.3831V17.2851ZM54 14.5189H55.3831V15.902H54V14.5189ZM55.3831 14.5189H56.7662V15.902H55.3831V14.5189ZM55.3831 15.902H56.7662V17.2851H55.3831V15.902ZM54 15.902H55.3831V17.2851H54V15.902Z" fill="white"/>
<path d="M65.5846 26.9666H66.9677V28.3497H65.5846V26.9666ZM66.9677 26.9666H68.3507V28.3497H66.9677V26.9666ZM66.9677 25.5835H68.3507V26.9666H66.9677V25.5835ZM66.9677 24.2005H68.3507V25.5835H66.9677V24.2005ZM66.9677 22.8174H68.3507V24.2005H66.9677V22.8174ZM66.9677 21.4343H68.3507V22.8174H66.9677V21.4343ZM66.9677 20.0512H68.3507V21.4343H66.9677V20.0512ZM65.5846 20.0512H66.9677V21.4343H65.5846V20.0512ZM65.5846 21.4343H66.9677V22.8174H65.5846V21.4343ZM65.5846 22.8174H66.9677V24.2005H65.5846V22.8174ZM65.5846 24.2005H66.9677V25.5835H65.5846V24.2005ZM65.5846 25.5835H66.9677V26.9666H65.5846V25.5835ZM65.5846 18.6681H66.9677V20.0512H65.5846V18.6681ZM66.9677 18.6681H68.3507V20.0512H66.9677V18.6681ZM66.9677 17.2851H68.3507V18.6681H66.9677V17.2851ZM66.9677 15.902H68.3507V17.2851H66.9677V15.902ZM66.9677 14.5189H68.3507V15.902H66.9677V14.5189ZM65.5846 14.5189H66.9677V15.902H65.5846V14.5189ZM65.5846 15.902H66.9677V17.2851H65.5846V15.902ZM65.5846 17.2851H66.9677V18.6681H65.5846V17.2851Z" fill="white"/>
<path d="M70.261 14.5189H71.644V15.902H70.261V14.5189ZM71.644 14.5189H73.0271V15.902H71.644V14.5189ZM73.0271 14.5189H74.4102V15.902H73.0271V14.5189ZM74.4102 14.5189H75.7933V15.902H74.4102V14.5189ZM75.7933 14.5189H77.1764V15.902H75.7933V14.5189ZM77.1764 14.5189H78.5594V15.902H77.1764V14.5189ZM77.1764 15.902H78.5594V17.2851H77.1764V15.902ZM75.7933 15.902H77.1764V17.2851H75.7933V15.902ZM74.4102 15.902H75.7933V17.2851H74.4102V15.902ZM73.0271 15.902H74.4102V17.2851H73.0271V15.902ZM71.644 15.902H73.0271V17.2851H71.644V15.902ZM70.261 15.902H71.644V17.2851H70.261V15.902ZM78.5594 15.902H79.9425V17.2851H78.5594V15.902ZM78.5594 17.2851H79.9425V18.6681H78.5594V17.2851ZM78.5594 18.6681H79.9425V20.0512H78.5594V18.6681ZM77.1764 18.6681H78.5594V20.0512H77.1764V18.6681ZM77.1764 17.2851H78.5594V18.6681H77.1764V17.2851ZM77.1764 20.0512H78.5594V21.4343H77.1764V20.0512ZM75.7933 20.0512H77.1764V21.4343H75.7933V20.0512ZM74.4102 20.0512H75.7933V21.4343H74.4102V20.0512ZM73.0271 20.0512H74.4102V21.4343H73.0271V20.0512ZM71.644 20.0512H73.0271V21.4343H71.644V20.0512ZM71.644 18.6681H73.0271V20.0512H71.644V18.6681ZM71.644 17.2851H73.0271V18.6681H71.644V17.2851ZM70.261 17.2851H71.644V18.6681H70.261V17.2851ZM70.261 18.6681H71.644V20.0512H70.261V18.6681ZM70.261 20.0512H71.644V21.4343H70.261V20.0512ZM70.261 21.4343H71.644V22.8174H70.261V21.4343ZM71.644 21.4343H73.0271V22.8174H71.644V21.4343ZM73.0271 21.4343H74.4102V22.8174H73.0271V21.4343ZM74.4102 21.4343H75.7933V22.8174H74.4102V21.4343ZM75.7933 21.4343H77.1764V22.8174H75.7933V21.4343ZM77.1764 21.4343H78.5594V22.8174H77.1764V21.4343ZM78.5594 21.4343H79.9425V22.8174H78.5594V21.4343ZM78.5594 22.8174H79.9425V24.2005H78.5594V22.8174ZM77.1764 22.8174H78.5594V24.2005H77.1764V22.8174ZM77.1764 25.5835H78.5594V26.9666H77.1764V25.5835ZM78.5594 25.5835H79.9425V26.9666H78.5594V25.5835ZM78.5594 24.2005H79.9425V25.5835H78.5594V24.2005ZM77.1764 24.2005H78.5594V25.5835H77.1764V24.2005ZM77.1764 26.9666H78.5594V28.3497H77.1764V26.9666ZM75.7933 26.9666H77.1764V28.3497H75.7933V26.9666ZM74.4102 26.9666H75.7933V28.3497H74.4102V26.9666ZM73.0271 26.9666H74.4102V28.3497H73.0271V26.9666ZM71.644 26.9666H73.0271V28.3497H71.644V26.9666ZM70.261 26.9666H71.644V28.3497H70.261V26.9666ZM70.261 25.5835H71.644V26.9666H70.261V25.5835ZM70.261 24.2005H71.644V25.5835H70.261V24.2005ZM70.261 22.8174H71.644V24.2005H70.261V22.8174ZM71.644 22.8174H73.0271V24.2005H71.644V22.8174ZM71.644 24.2005H73.0271V25.5835H71.644V24.2005ZM71.644 25.5835H73.0271V26.9666H71.644V25.5835ZM73.0271 25.5835H74.4102V26.9666H73.0271V25.5835ZM74.4102 25.5835H75.7933V26.9666H74.4102V25.5835ZM75.7933 25.5835H77.1764V26.9666H75.7933V25.5835Z" fill="white"/>
<path d="M81.8455 14.5189H83.2286V15.902H81.8455V14.5189ZM83.2286 14.5189H84.6117V15.902H83.2286V14.5189ZM83.2286 15.902H84.6117V17.2851H83.2286V15.902ZM83.2286 17.2851H84.6117V18.6681H83.2286V17.2851ZM83.2286 18.6681H84.6117V20.0512H83.2286V18.6681ZM81.8455 18.6681H83.2286V20.0512H81.8455V18.6681ZM81.8455 17.2851H83.2286V18.6681H81.8455V17.2851ZM81.8455 15.902H83.2286V17.2851H81.8455V15.902ZM81.8455 20.0512H83.2286V21.4343H81.8455V20.0512ZM81.8455 21.4343H83.2286V22.8174H81.8455V21.4343ZM81.8455 22.8174H83.2286V24.2005H81.8455V22.8174ZM83.2286 21.4343H84.6117V22.8174H83.2286V21.4343ZM83.2286 20.0512H84.6117V21.4343H83.2286V20.0512ZM83.2286 22.8174H84.6117V24.2005H83.2286V22.8174ZM83.2286 24.2005H84.6117V25.5835H83.2286V24.2005ZM81.8455 25.5835H83.2286V26.9666H81.8455V25.5835ZM81.8455 24.2005H83.2286V25.5835H81.8455V24.2005ZM81.8455 26.9666H83.2286V28.3497H81.8455V26.9666ZM83.2286 26.9666H84.6117V28.3497H83.2286V26.9666ZM83.2286 25.5835H84.6117V26.9666H83.2286V25.5835ZM84.6117 26.9666H85.9948V28.3497H84.6117V26.9666ZM85.9948 26.9666H87.3778V28.3497H85.9948V26.9666ZM87.3778 26.9666H88.7609V28.3497H87.3778V26.9666ZM87.3778 25.5835H88.7609V26.9666H87.3778V25.5835ZM85.9948 25.5835H87.3778V26.9666H85.9948V25.5835ZM84.6117 25.5835H85.9948V26.9666H84.6117V25.5835ZM84.6117 14.5189H85.9948V15.902H84.6117V14.5189ZM85.9948 14.5189H87.3778V15.902H85.9948V14.5189ZM87.3778 14.5189H88.7609V15.902H87.3778V14.5189ZM88.7609 14.5189H90.144V15.902H88.7609V14.5189ZM87.3778 15.902H88.7609V17.2851H87.3778V15.902ZM85.9948 15.902H87.3778V17.2851H85.9948V15.902ZM84.6117 15.902H85.9948V17.2851H84.6117V15.902ZM84.6117 21.4343H85.9948V22.8174H84.6117V21.4343ZM85.9948 20.0512H87.3778V21.4343H85.9948V20.0512ZM84.6117 20.0512H85.9948V21.4343H84.6117V20.0512ZM85.9948 21.4343H87.3778V22.8174H85.9948V21.4343ZM88.7609 15.902H90.144V17.2851H88.7609V15.902ZM88.7609 25.5835H90.144V26.9666H88.7609V25.5835ZM88.7609 26.9666H90.144V28.3497H88.7609V26.9666ZM87.3778 20.0512H88.7609V21.4343H87.3778V20.0512ZM87.3778 21.4343H88.7609V22.8174H87.3778V21.4343Z" fill="white"/>
<path d="M94.8096 14.5189H96.1927V15.902H94.8096V14.5189ZM93.4265 14.5189H94.8096V15.902H93.4265V14.5189ZM93.4265 15.902H94.8096V17.2851H93.4265V15.902ZM94.8096 15.902H96.1927V17.2851H94.8096V15.902ZM96.1927 15.902H97.5757V17.2851H96.1927V15.902ZM96.1927 14.5189H97.5757V15.902H96.1927V14.5189ZM97.5757 14.5189H98.9588V15.902H97.5757V14.5189ZM98.9588 14.5189H100.342V15.902H98.9588V14.5189ZM98.9588 15.902H100.342V17.2851H98.9588V15.902ZM97.5757 15.902H98.9588V17.2851H97.5757V15.902ZM98.9588 17.2851H100.342V18.6681H98.9588V17.2851ZM100.342 15.902H101.725V17.2851H100.342V15.902ZM100.342 17.2851H101.725V18.6681H100.342V17.2851ZM100.342 24.2005H101.725V25.5835H100.342V24.2005ZM100.342 25.5835H101.725V26.9666H100.342V25.5835ZM98.9588 25.5835H100.342V26.9666H98.9588V25.5835ZM98.9588 24.2005H100.342V25.5835H98.9588V24.2005ZM97.5757 25.5835H98.9588V26.9666H97.5757V25.5835ZM98.9588 26.9666H100.342V28.3497H98.9588V26.9666ZM97.5757 26.9666H98.9588V28.3497H97.5757V26.9666ZM96.1927 26.9666H97.5757V28.3497H96.1927V26.9666ZM96.1927 25.5835H97.5757V26.9666H96.1927V25.5835ZM94.8096 26.9666H96.1927V28.3497H94.8096V26.9666ZM93.4265 26.9666H94.8096V28.3497H93.4265V26.9666ZM93.4265 25.5835H94.8096V26.9666H93.4265V25.5835ZM94.8096 25.5835H96.1927V26.9666H94.8096V25.5835ZM94.8096 24.2005H96.1927V25.5835H94.8096V24.2005ZM93.4265 24.2005H94.8096V25.5835H93.4265V24.2005ZM92.0434 25.5835H93.4265V26.9666H92.0434V25.5835ZM92.0434 24.2005H93.4265V25.5835H92.0434V24.2005ZM92.0434 22.8174H93.4265V24.2005H92.0434V22.8174ZM92.0434 21.4343H93.4265V22.8174H92.0434V21.4343ZM92.0434 20.0512H93.4265V21.4343H92.0434V20.0512ZM92.0434 18.6681H93.4265V20.0512H92.0434V18.6681ZM92.0434 17.2851H93.4265V18.6681H92.0434V17.2851ZM93.4265 17.2851H94.8096V18.6681H93.4265V17.2851ZM92.0434 15.902H93.4265V17.2851H92.0434V15.902ZM94.8096 17.2851H96.1927V18.6681H94.8096V17.2851ZM93.4265 18.6681H94.8096V20.0512H93.4265V18.6681ZM93.4265 20.0512H94.8096V21.4343H93.4265V20.0512ZM93.4265 21.4343H94.8096V22.8174H93.4265V21.4343ZM93.4265 22.8174H94.8096V24.2005H93.4265V22.8174ZM100.342 22.8174H101.725V24.2005H100.342V22.8174ZM98.9588 22.8174H100.342V24.2005H98.9588V22.8174ZM98.9588 21.4343H100.342V22.8174H98.9588V21.4343ZM100.342 21.4343H101.725V22.8174H100.342V21.4343ZM100.342 20.0512H101.725V21.4343H100.342V20.0512ZM98.9588 20.0512H100.342V21.4343H98.9588V20.0512ZM97.5757 20.0512H98.9588V21.4343H97.5757V20.0512ZM96.1927 20.0512H97.5757V21.4343H96.1927V20.0512ZM96.1927 21.4343H97.5757V22.8174H96.1927V21.4343ZM97.5757 21.4343H98.9588V22.8174H97.5757V21.4343Z" fill="white"/>
<path d="M106.394 15.902H107.777V17.2851H106.394V15.902ZM107.777 15.902H109.16V17.2851H107.777V15.902ZM107.777 14.5189H109.16V15.902H107.777V14.5189ZM109.16 15.902H110.543V17.2851H109.16V15.902ZM109.16 17.2851H110.543V18.6681H109.16V17.2851ZM110.543 17.2851H111.926V18.6681H110.543V17.2851ZM107.777 17.2851H109.16V18.6681H107.777V17.2851ZM106.394 17.2851H107.777V18.6681H106.394V17.2851ZM105.011 17.2851H106.394V18.6681H105.011V17.2851ZM105.011 18.6681H106.394V20.0512H105.011V18.6681ZM103.628 18.6681H105.011V20.0512H103.628V18.6681ZM106.394 18.6681H107.777V20.0512H106.394V18.6681ZM105.011 20.0512H106.394V21.4343H105.011V20.0512ZM105.011 21.4343H106.394V22.8174H105.011V21.4343ZM105.011 22.8174H106.394V24.2005H105.011V22.8174ZM106.394 22.8174H107.777V24.2005H106.394V22.8174ZM107.777 22.8174H109.16V24.2005H107.777V22.8174ZM109.16 22.8174H110.543V24.2005H109.16V22.8174ZM110.543 22.8174H111.926V24.2005H110.543V22.8174ZM111.926 22.8174H113.31V24.2005H111.926V22.8174ZM111.926 21.4343H113.31V22.8174H111.926V21.4343ZM111.926 20.0512H113.31V21.4343H111.926V20.0512ZM111.926 18.6681H113.31V20.0512H111.926V18.6681ZM110.543 18.6681H111.926V20.0512H110.543V18.6681ZM109.16 18.6681H110.543V20.0512H109.16V18.6681ZM110.543 20.0512H111.926V21.4343H110.543V20.0512ZM110.543 21.4343H111.926V22.8174H110.543V21.4343ZM110.543 24.2005H111.926V25.5835H110.543V24.2005ZM111.926 24.2005H113.31V25.5835H111.926V24.2005ZM111.926 25.5835H113.31V26.9666H111.926V25.5835ZM111.926 26.9666H113.31V28.3497H111.926V26.9666ZM110.543 26.9666H111.926V28.3497H110.543V26.9666ZM110.543 25.5835H111.926V26.9666H110.543V25.5835ZM109.16 24.2005H110.543V25.5835H109.16V24.2005ZM107.777 24.2005H109.16V25.5835H107.777V24.2005ZM106.394 24.2005H107.777V25.5835H106.394V24.2005ZM105.011 24.2005H106.394V25.5835H105.011V24.2005ZM105.011 25.5835H106.394V26.9666H105.011V25.5835ZM105.011 26.9666H106.394V28.3497H105.011V26.9666ZM103.628 26.9666H105.011V28.3497H103.628V26.9666ZM103.628 25.5835H105.011V26.9666H103.628V25.5835ZM103.628 24.2005H105.011V25.5835H103.628V24.2005ZM103.628 22.8174H105.011V24.2005H103.628V22.8174ZM103.628 21.4343H105.011V22.8174H103.628V21.4343ZM103.628 20.0512H105.011V21.4343H103.628V20.0512Z" fill="white"/>
<path d="M115.213 26.9666H116.596V28.3497H115.213V26.9666ZM115.213 25.5835H116.596V26.9666H115.213V25.5835ZM115.213 24.2005H116.596V25.5835H115.213V24.2005ZM115.213 22.8174H116.596V24.2005H115.213V22.8174ZM115.213 21.4343H116.596V22.8174H115.213V21.4343ZM115.213 20.0512H116.596V21.4343H115.213V20.0512ZM116.596 20.0512H117.979V21.4343H116.596V20.0512ZM116.596 18.6681H117.979V20.0512H116.596V18.6681ZM116.596 17.2851H117.979V18.6681H116.596V17.2851ZM116.596 15.902H117.979V17.2851H116.596V15.902ZM115.213 15.902H116.596V17.2851H115.213V15.902ZM115.213 14.5189H116.596V15.902H115.213V14.5189ZM115.213 17.2851H116.596V18.6681H115.213V17.2851ZM115.213 18.6681H116.596V20.0512H115.213V18.6681ZM116.596 14.5189H117.979V15.902H116.596V14.5189ZM116.596 21.4343H117.979V22.8174H116.596V21.4343ZM116.596 22.8174H117.979V24.2005H116.596V22.8174ZM116.596 24.2005H117.979V25.5835H116.596V24.2005ZM116.596 25.5835H117.979V26.9666H116.596V25.5835ZM116.596 26.9666H117.979V28.3497H116.596V26.9666ZM117.979 17.2851H119.362V18.6681H117.979V17.2851ZM117.979 18.6681H119.362V20.0512H117.979V18.6681ZM119.362 18.6681H120.745V20.0512H119.362V18.6681ZM119.362 20.0512H120.745V21.4343H119.362V20.0512ZM120.745 20.0512H122.128V21.4343H120.745V20.0512ZM120.745 21.4343H122.128V22.8174H120.745V21.4343ZM122.128 20.0512H123.511V21.4343H122.128V20.0512ZM122.128 18.6681H123.511V20.0512H122.128V18.6681ZM123.511 18.6681H124.894V20.0512H123.511V18.6681ZM123.511 17.2851H124.894V18.6681H123.511V17.2851ZM124.894 14.5189H126.277V15.902H124.894V14.5189ZM124.894 15.902H126.277V17.2851H124.894V15.902ZM124.894 17.2851H126.277V18.6681H124.894V17.2851ZM124.894 18.6681H126.277V20.0512H124.894V18.6681ZM124.894 20.0512H126.277V21.4343H124.894V20.0512ZM124.894 21.4343H126.277V22.8174H124.894V21.4343ZM124.894 22.8174H126.277V24.2005H124.894V22.8174ZM124.894 24.2005H126.277V25.5835H124.894V24.2005ZM124.894 25.5835H126.277V26.9666H124.894V25.5835ZM124.894 26.9666H126.277V28.3497H124.894V26.9666ZM126.277 26.9666H127.66V28.3497H126.277V26.9666ZM126.277 25.5835H127.66V26.9666H126.277V25.5835ZM126.277 24.2005H127.66V25.5835H126.277V24.2005ZM126.277 22.8174H127.66V24.2005H126.277V22.8174ZM126.277 21.4343H127.66V22.8174H126.277V21.4343ZM126.277 20.0512H127.66V21.4343H126.277V20.0512ZM126.277 18.6681H127.66V20.0512H126.277V18.6681ZM126.277 17.2851H127.66V18.6681H126.277V17.2851ZM126.277 15.902H127.66V17.2851H126.277V15.902ZM126.277 14.5189H127.66V15.902H126.277V14.5189ZM117.979 15.902H119.362V17.2851H117.979V15.902ZM119.362 17.2851H120.745V18.6681H119.362V17.2851ZM120.745 18.6681H122.128V20.0512H120.745V18.6681ZM122.128 17.2851H123.511V18.6681H122.128V17.2851ZM123.511 15.902H124.894V17.2851H123.511V15.902Z" fill="white"/>
<path d="M129.571 14.5189H130.954V15.902H129.571V14.5189ZM130.954 14.5189H132.337V15.902H130.954V14.5189ZM130.954 15.902H132.337V17.2851H130.954V15.902ZM130.954 17.2851H132.337V18.6681H130.954V17.2851ZM130.954 18.6681H132.337V20.0512H130.954V18.6681ZM129.571 18.6681H130.954V20.0512H129.571V18.6681ZM129.571 17.2851H130.954V18.6681H129.571V17.2851ZM129.571 15.902H130.954V17.2851H129.571V15.902ZM129.571 20.0512H130.954V21.4343H129.571V20.0512ZM129.571 21.4343H130.954V22.8174H129.571V21.4343ZM129.571 22.8174H130.954V24.2005H129.571V22.8174ZM130.954 21.4343H132.337V22.8174H130.954V21.4343ZM130.954 20.0512H132.337V21.4343H130.954V20.0512ZM130.954 22.8174H132.337V24.2005H130.954V22.8174ZM130.954 24.2005H132.337V25.5835H130.954V24.2005ZM129.571 25.5835H130.954V26.9666H129.571V25.5835ZM129.571 24.2005H130.954V25.5835H129.571V24.2005ZM129.571 26.9666H130.954V28.3497H129.571V26.9666ZM130.954 26.9666H132.337V28.3497H130.954V26.9666ZM130.954 25.5835H132.337V26.9666H130.954V25.5835ZM132.337 26.9666H133.72V28.3497H132.337V26.9666ZM133.72 26.9666H135.103V28.3497H133.72V26.9666ZM135.103 26.9666H136.486V28.3497H135.103V26.9666ZM135.103 25.5835H136.486V26.9666H135.103V25.5835ZM133.72 25.5835H135.103V26.9666H133.72V25.5835ZM132.337 25.5835H133.72V26.9666H132.337V25.5835ZM132.337 14.5189H133.72V15.902H132.337V14.5189ZM133.72 14.5189H135.103V15.902H133.72V14.5189ZM135.103 14.5189H136.486V15.902H135.103V14.5189ZM136.486 14.5189H137.869V15.902H136.486V14.5189ZM135.103 15.902H136.486V17.2851H135.103V15.902ZM133.72 15.902H135.103V17.2851H133.72V15.902ZM132.337 15.902H133.72V17.2851H132.337V15.902ZM132.337 21.4343H133.72V22.8174H132.337V21.4343ZM133.72 20.0512H135.103V21.4343H133.72V20.0512ZM132.337 20.0512H133.72V21.4343H132.337V20.0512ZM133.72 21.4343H135.103V22.8174H133.72V21.4343ZM136.486 15.902H137.869V17.2851H136.486V15.902ZM136.486 25.5835H137.869V26.9666H136.486V25.5835ZM136.486 26.9666H137.869V28.3497H136.486V26.9666ZM135.103 20.0512H136.486V21.4343H135.103V20.0512ZM135.103 21.4343H136.486V22.8174H135.103V21.4343Z" fill="white"/>
<path d="M17.3882 12.9575H20.6572V16.3052H17.3882V12.9575Z" fill="url(#paint0_linear_148_18)"/>
<path d="M23.9261 12.9575H20.6572V16.3052H23.9261V12.9575Z" fill="url(#paint1_linear_148_18)"/>
<path d="M15.8129 10.8702H19.0818V14.2178H15.8129V10.8702Z" fill="url(#paint2_linear_148_18)"/>
<path d="M25.5015 10.8702H22.2326V14.2178H25.5015V10.8702Z" fill="url(#paint3_linear_148_18)"/>
<path d="M14.2375 8.74338H17.5064V12.0911H14.2375V8.74338Z" fill="url(#paint4_linear_148_18)"/>
<path d="M27.0769 8.74338H23.8079V12.0911H27.0769V8.74338Z" fill="url(#paint5_linear_148_18)"/>
<path d="M12.6621 6.656H15.931V10.0037H12.6621V6.656Z" fill="url(#paint6_linear_148_18)"/>
<path d="M28.6916 6.656H25.4227V10.0037H28.6916V6.656Z" fill="url(#paint7_linear_148_18)"/>
<path d="M12.6621 6.656H15.931V10.0037H12.6621V6.656Z" fill="url(#paint8_linear_148_18)"/>
<path d="M28.6916 6.656H25.4227V10.0037H28.6916V6.656Z" fill="url(#paint9_linear_148_18)"/>
<path d="M12.6621 3.34769H15.931V6.69538H12.6621V3.34769Z" fill="url(#paint10_linear_148_18)"/>
<path d="M15.931 0H19.0818V3.34769H15.931V0Z" fill="url(#paint11_linear_148_18)"/>
<path d="M19.0818 0H22.2719V3.34769H19.0818V0Z" fill="url(#paint12_linear_148_18)"/>
<path d="M22.2719 0H25.4227V3.34769H22.2719V0Z" fill="url(#paint13_linear_148_18)"/>
<path d="M19.0003 3.34769H22.2692V6.69538H19.0003V3.34769Z" fill="url(#paint14_linear_148_18)"/>
<path d="M28.6916 3.34769H25.4227V6.69538H28.6916V3.34769Z" fill="url(#paint15_linear_148_18)"/>
<path d="M28.3963 17.3883V20.6572H25.0486V17.3883H28.3963Z" fill="url(#paint16_linear_148_18)"/>
<path d="M28.3963 23.9261V20.6572H25.0486V23.9261H28.3963Z" fill="url(#paint17_linear_148_18)"/>
<path d="M30.4837 15.8129V19.0818H27.136V15.8129H30.4837Z" fill="url(#paint18_linear_148_18)"/>
<path d="M30.4837 25.5015V22.2326H27.136V25.5015H30.4837Z" fill="url(#paint19_linear_148_18)"/>
<path d="M32.6105 14.2375V17.5065H29.2628V14.2375L32.6105 14.2375Z" fill="url(#paint20_linear_148_18)"/>
<path d="M32.6105 27.0769V23.808H29.2628L29.2628 27.0769H32.6105Z" fill="url(#paint21_linear_148_18)"/>
<path d="M34.6978 12.6622V15.9311H31.3502V12.6622H34.6978Z" fill="url(#paint22_linear_148_18)"/>
<path d="M34.6978 28.6917V25.4228H31.3502V28.6917H34.6978Z" fill="url(#paint23_linear_148_18)"/>
<path d="M34.6978 12.6622V15.9311H31.3502V12.6622H34.6978Z" fill="url(#paint24_linear_148_18)"/>
<path d="M34.6978 28.6917V25.4228H31.3502V28.6917H34.6978Z" fill="url(#paint25_linear_148_18)"/>
<path d="M38.0061 12.6622V15.9311H34.6585V12.6622H38.0061Z" fill="url(#paint26_linear_148_18)"/>
<path d="M41.3538 15.9311V19.0818H38.0061V15.9311H41.3538Z" fill="url(#paint27_linear_148_18)"/>
<path d="M41.3538 19.0818V22.272H38.0061V19.0818H41.3538Z" fill="url(#paint28_linear_148_18)"/>
<path d="M41.3538 22.272V25.4228H38.0061V22.272H41.3538Z" fill="url(#paint29_linear_148_18)"/>
<path d="M38.0061 19.0004V22.2693H34.6584V19.0004H38.0061Z" fill="url(#paint30_linear_148_18)"/>
<path d="M38.0061 28.6917V25.4228H34.6585V28.6917H38.0061Z" fill="url(#paint31_linear_148_18)"/>
<path d="M17.3882 28.3963H20.6572V25.0486H17.3882V28.3963Z" fill="url(#paint32_linear_148_18)"/>
<path d="M23.9261 28.3963H20.6572V25.0486H23.9261V28.3963Z" fill="url(#paint33_linear_148_18)"/>
<path d="M15.8129 30.4837H19.0818V27.136H15.8129V30.4837Z" fill="url(#paint34_linear_148_18)"/>
<path d="M25.5015 30.4837H22.2326V27.136H25.5015V30.4837Z" fill="url(#paint35_linear_148_18)"/>
<path d="M14.2375 32.6105H17.5064V29.2628H14.2375V32.6105Z" fill="url(#paint36_linear_148_18)"/>
<path d="M27.0769 32.6105H23.8079V29.2628H27.0769V32.6105Z" fill="url(#paint37_linear_148_18)"/>
<path d="M12.6621 34.6978H15.931V31.3502H12.6621V34.6978Z" fill="url(#paint38_linear_148_18)"/>
<path d="M28.6916 34.6978H25.4227V31.3502H28.6916V34.6978Z" fill="url(#paint39_linear_148_18)"/>
<path d="M12.6621 34.6978H15.931V31.3502H12.6621V34.6978Z" fill="url(#paint40_linear_148_18)"/>
<path d="M28.6916 34.6978H25.4227V31.3502H28.6916V34.6978Z" fill="url(#paint41_linear_148_18)"/>
<path d="M12.6621 38.0061H15.931V34.6585H12.6621V38.0061Z" fill="url(#paint42_linear_148_18)"/>
<path d="M15.931 41.3538H19.0818V38.0061H15.931V41.3538Z" fill="url(#paint43_linear_148_18)"/>
<path d="M19.0818 41.3538H22.2719V38.0061H19.0818V41.3538Z" fill="url(#paint44_linear_148_18)"/>
<path d="M22.2719 41.3538H25.4227V38.0061H22.2719V41.3538Z" fill="url(#paint45_linear_148_18)"/>
<path d="M19.0003 38.0061H22.2692V34.6585H19.0003V38.0061Z" fill="url(#paint46_linear_148_18)"/>
<path d="M28.6916 38.0061H25.4227V34.6585H28.6916V38.0061Z" fill="url(#paint47_linear_148_18)"/>
<path d="M12.9575 17.3883V20.6572H16.3052V17.3883H12.9575Z" fill="url(#paint48_linear_148_18)"/>
<path d="M12.9575 23.9262V20.6572H16.3052V23.9262H12.9575Z" fill="url(#paint49_linear_148_18)"/>
<path d="M10.8702 15.8129V19.0819H14.2178L14.2178 15.8129H10.8702Z" fill="url(#paint50_linear_148_18)"/>
<path d="M10.8702 25.5015V22.2326H14.2178V25.5015H10.8702Z" fill="url(#paint51_linear_148_18)"/>
<path d="M8.74338 14.2375V17.5065H12.0911L12.0911 14.2375H8.74338Z" fill="url(#paint52_linear_148_18)"/>
<path d="M8.74338 27.0769L8.74338 23.808H12.0911V27.0769H8.74338Z" fill="url(#paint53_linear_148_18)"/>
<path d="M6.656 12.6622V15.9311H10.0037V12.6622H6.656Z" fill="url(#paint54_linear_148_18)"/>
<path d="M6.656 28.6917V25.4228H10.0037L10.0037 28.6917H6.656Z" fill="url(#paint55_linear_148_18)"/>
<path d="M6.656 12.6622V15.9311H10.0037V12.6622H6.656Z" fill="url(#paint56_linear_148_18)"/>
<path d="M6.656 28.6917V25.4228H10.0037L10.0037 28.6917H6.656Z" fill="url(#paint57_linear_148_18)"/>
<path d="M3.34769 12.6622L3.34769 15.9311H6.69538V12.6622H3.34769Z" fill="url(#paint58_linear_148_18)"/>
<path d="M1.39446e-07 15.9311L1.72157e-09 19.0819H3.34769V15.9311H1.39446e-07Z" fill="url(#paint59_linear_148_18)"/>
<path d="M1.72157e-09 19.0819L0 22.272H3.34769V19.0819H1.72157e-09Z" fill="url(#paint60_linear_148_18)"/>
<path d="M0 22.272L1.72157e-09 25.4228H3.34769V22.272H0Z" fill="url(#paint61_linear_148_18)"/>
<path d="M3.34778 19.0004V22.2693H6.69547V19.0004H3.34778Z" fill="url(#paint62_linear_148_18)"/>
<path d="M3.34769 28.6917V25.4228H6.69538L6.69538 28.6917H3.34769Z" fill="url(#paint63_linear_148_18)"/>
<defs>
<linearGradient id="paint0_linear_148_18" x1="-6.5" y1="7.5" x2="37.5" y2="41" gradientUnits="userSpaceOnUse">
<stop stop-color="#EE00FF"/>
<stop offset="0.663888" stop-color="#EE5705"/>
<stop offset="1" stop-color="#EE05E7"/>
</linearGradient>
<linearGradient id="paint1_linear_148_18" x1="-6.5" y1="7.5" x2="37.5" y2="41" gradientUnits="userSpaceOnUse">
<stop stop-color="#EE00FF"/>
<stop offset="0.663888" stop-color="#EE5705"/>
<stop offset="1" stop-color="#EE05E7"/>
</linearGradient>
<linearGradient id="paint2_linear_148_18" x1="-6.5" y1="7.5" x2="37.5" y2="41" gradientUnits="userSpaceOnUse">
<stop stop-color="#EE00FF"/>
<stop offset="0.663888" stop-color="#EE5705"/>
<stop offset="1" stop-color="#EE05E7"/>
</linearGradient>
<linearGradient id="paint3_linear_148_18" x1="-6.5" y1="7.5" x2="37.5" y2="41" gradientUnits="userSpaceOnUse">
<stop stop-color="#EE00FF"/>
<stop offset="0.663888" stop-color="#EE5705"/>
<stop offset="1" stop-color="#EE05E7"/>
</linearGradient>
<linearGradient id="paint4_linear_148_18" x1="-6.5" y1="7.5" x2="37.5" y2="41" gradientUnits="userSpaceOnUse">
<stop stop-color="#EE00FF"/>
<stop offset="0.663888" stop-color="#EE5705"/>
<stop offset="1" stop-color="#EE05E7"/>
</linearGradient>
<linearGradient id="paint5_linear_148_18" x1="-6.5" y1="7.5" x2="37.5" y2="41" gradientUnits="userSpaceOnUse">
<stop stop-color="#EE00FF"/>
<stop offset="0.663888" stop-color="#EE5705"/>
<stop offset="1" stop-color="#EE05E7"/>
</linearGradient>
<linearGradient id="paint6_linear_148_18" x1="-6.5" y1="7.5" x2="37.5" y2="41" gradientUnits="userSpaceOnUse">
<stop stop-color="#EE00FF"/>
<stop offset="0.663888" stop-color="#EE5705"/>
<stop offset="1" stop-color="#EE05E7"/>
</linearGradient>
<linearGradient id="paint7_linear_148_18" x1="-6.5" y1="7.5" x2="37.5" y2="41" gradientUnits="userSpaceOnUse">
<stop stop-color="#EE00FF"/>
<stop offset="0.663888" stop-color="#EE5705"/>
<stop offset="1" stop-color="#EE05E7"/>
</linearGradient>
<linearGradient id="paint8_linear_148_18" x1="-6.5" y1="7.5" x2="37.5" y2="41" gradientUnits="userSpaceOnUse">
<stop stop-color="#EE00FF"/>
<stop offset="0.663888" stop-color="#EE5705"/>
<stop offset="1" stop-color="#EE05E7"/>
</linearGradient>
<linearGradient id="paint9_linear_148_18" x1="-6.5" y1="7.5" x2="37.5" y2="41" gradientUnits="userSpaceOnUse">
<stop stop-color="#EE00FF"/>
<stop offset="0.663888" stop-color="#EE5705"/>
<stop offset="1" stop-color="#EE05E7"/>
</linearGradient>
<linearGradient id="paint10_linear_148_18" x1="-6.5" y1="7.5" x2="37.5" y2="41" gradientUnits="userSpaceOnUse">
<stop stop-color="#EE00FF"/>
<stop offset="0.663888" stop-color="#EE5705"/>
<stop offset="1" stop-color="#EE05E7"/>
</linearGradient>
<linearGradient id="paint11_linear_148_18" x1="-6.5" y1="7.5" x2="37.5" y2="41" gradientUnits="userSpaceOnUse">
<stop stop-color="#EE00FF"/>
<stop offset="0.663888" stop-color="#EE5705"/>
<stop offset="1" stop-color="#EE05E7"/>
</linearGradient>
<linearGradient id="paint12_linear_148_18" x1="-6.5" y1="7.5" x2="37.5" y2="41" gradientUnits="userSpaceOnUse">
<stop stop-color="#EE00FF"/>
<stop offset="0.663888" stop-color="#EE5705"/>
<stop offset="1" stop-color="#EE05E7"/>
</linearGradient>
<linearGradient id="paint13_linear_148_18" x1="-6.5" y1="7.5" x2="37.5" y2="41" gradientUnits="userSpaceOnUse">
<stop stop-color="#EE00FF"/>
<stop offset="0.663888" stop-color="#EE5705"/>
<stop offset="1" stop-color="#EE05E7"/>
</linearGradient>
<linearGradient id="paint14_linear_148_18" x1="-6.5" y1="7.5" x2="37.5" y2="41" gradientUnits="userSpaceOnUse">
<stop stop-color="#EE00FF"/>
<stop offset="0.663888" stop-color="#EE5705"/>
<stop offset="1" stop-color="#EE05E7"/>
</linearGradient>
<linearGradient id="paint15_linear_148_18" x1="-6.5" y1="7.5" x2="37.5" y2="41" gradientUnits="userSpaceOnUse">
<stop stop-color="#EE00FF"/>
<stop offset="0.663888" stop-color="#EE5705"/>
<stop offset="1" stop-color="#EE05E7"/>
</linearGradient>
<linearGradient id="paint16_linear_148_18" x1="-6.5" y1="7.5" x2="37.5" y2="41" gradientUnits="userSpaceOnUse">
<stop stop-color="#EE00FF"/>
<stop offset="0.663888" stop-color="#EE5705"/>
<stop offset="1" stop-color="#EE05E7"/>
</linearGradient>
<linearGradient id="paint17_linear_148_18" x1="-6.5" y1="7.5" x2="37.5" y2="41" gradientUnits="userSpaceOnUse">
<stop stop-color="#EE00FF"/>
<stop offset="0.663888" stop-color="#EE5705"/>
<stop offset="1" stop-color="#EE05E7"/>
</linearGradient>
<linearGradient id="paint18_linear_148_18" x1="-6.5" y1="7.5" x2="37.5" y2="41" gradientUnits="userSpaceOnUse">
<stop stop-color="#EE00FF"/>
<stop offset="0.663888" stop-color="#EE5705"/>
<stop offset="1" stop-color="#EE05E7"/>
</linearGradient>
<linearGradient id="paint19_linear_148_18" x1="-6.5" y1="7.5" x2="37.5" y2="41" gradientUnits="userSpaceOnUse">
<stop stop-color="#EE00FF"/>
<stop offset="0.663888" stop-color="#EE5705"/>
<stop offset="1" stop-color="#EE05E7"/>
</linearGradient>
<linearGradient id="paint20_linear_148_18" x1="-6.5" y1="7.5" x2="37.5" y2="41" gradientUnits="userSpaceOnUse">
<stop stop-color="#EE00FF"/>
<stop offset="0.663888" stop-color="#EE5705"/>
<stop offset="1" stop-color="#EE05E7"/>
</linearGradient>
<linearGradient id="paint21_linear_148_18" x1="-6.5" y1="7.5" x2="37.5" y2="41" gradientUnits="userSpaceOnUse">
<stop stop-color="#EE00FF"/>
<stop offset="0.663888" stop-color="#EE5705"/>
<stop offset="1" stop-color="#EE05E7"/>
</linearGradient>
<linearGradient id="paint22_linear_148_18" x1="-6.5" y1="7.5" x2="37.5" y2="41" gradientUnits="userSpaceOnUse">
<stop stop-color="#EE00FF"/>
<stop offset="0.663888" stop-color="#EE5705"/>
<stop offset="1" stop-color="#EE05E7"/>
</linearGradient>
<linearGradient id="paint23_linear_148_18" x1="-6.5" y1="7.5" x2="37.5" y2="41" gradientUnits="userSpaceOnUse">
<stop stop-color="#EE00FF"/>
<stop offset="0.663888" stop-color="#EE5705"/>
<stop offset="1" stop-color="#EE05E7"/>
</linearGradient>
<linearGradient id="paint24_linear_148_18" x1="-6.5" y1="7.5" x2="37.5" y2="41" gradientUnits="userSpaceOnUse">
<stop stop-color="#EE00FF"/>
<stop offset="0.663888" stop-color="#EE5705"/>
<stop offset="1" stop-color="#EE05E7"/>
</linearGradient>
<linearGradient id="paint25_linear_148_18" x1="-6.5" y1="7.5" x2="37.5" y2="41" gradientUnits="userSpaceOnUse">
<stop stop-color="#EE00FF"/>
<stop offset="0.663888" stop-color="#EE5705"/>
<stop offset="1" stop-color="#EE05E7"/>
</linearGradient>
<linearGradient id="paint26_linear_148_18" x1="-6.5" y1="7.5" x2="37.5" y2="41" gradientUnits="userSpaceOnUse">
<stop stop-color="#EE00FF"/>
<stop offset="0.663888" stop-color="#EE5705"/>
<stop offset="1" stop-color="#EE05E7"/>
</linearGradient>
<linearGradient id="paint27_linear_148_18" x1="-6.5" y1="7.5" x2="37.5" y2="41" gradientUnits="userSpaceOnUse">
<stop stop-color="#EE00FF"/>
<stop offset="0.663888" stop-color="#EE5705"/>
<stop offset="1" stop-color="#EE05E7"/>
</linearGradient>
<linearGradient id="paint28_linear_148_18" x1="-6.5" y1="7.5" x2="37.5" y2="41" gradientUnits="userSpaceOnUse">
<stop stop-color="#EE00FF"/>
<stop offset="0.663888" stop-color="#EE5705"/>
<stop offset="1" stop-color="#EE05E7"/>
</linearGradient>
<linearGradient id="paint29_linear_148_18" x1="-6.5" y1="7.5" x2="37.5" y2="41" gradientUnits="userSpaceOnUse">
<stop stop-color="#EE00FF"/>
<stop offset="0.663888" stop-color="#EE5705"/>
<stop offset="1" stop-color="#EE05E7"/>
</linearGradient>
<linearGradient id="paint30_linear_148_18" x1="-6.5" y1="7.5" x2="37.5" y2="41" gradientUnits="userSpaceOnUse">
<stop stop-color="#EE00FF"/>
<stop offset="0.663888" stop-color="#EE5705"/>
<stop offset="1" stop-color="#EE05E7"/>
</linearGradient>
<linearGradient id="paint31_linear_148_18" x1="-6.5" y1="7.5" x2="37.5" y2="41" gradientUnits="userSpaceOnUse">
<stop stop-color="#EE00FF"/>
<stop offset="0.663888" stop-color="#EE5705"/>
<stop offset="1" stop-color="#EE05E7"/>
</linearGradient>
<linearGradient id="paint32_linear_148_18" x1="-6.5" y1="7.5" x2="37.5" y2="41" gradientUnits="userSpaceOnUse">
<stop stop-color="#EE00FF"/>
<stop offset="0.663888" stop-color="#EE5705"/>
<stop offset="1" stop-color="#EE05E7"/>
</linearGradient>
<linearGradient id="paint33_linear_148_18" x1="-6.5" y1="7.5" x2="37.5" y2="41" gradientUnits="userSpaceOnUse">
<stop stop-color="#EE00FF"/>
<stop offset="0.663888" stop-color="#EE5705"/>
<stop offset="1" stop-color="#EE05E7"/>
</linearGradient>
<linearGradient id="paint34_linear_148_18" x1="-6.5" y1="7.5" x2="37.5" y2="41" gradientUnits="userSpaceOnUse">
<stop stop-color="#EE00FF"/>
<stop offset="0.663888" stop-color="#EE5705"/>
<stop offset="1" stop-color="#EE05E7"/>
</linearGradient>
<linearGradient id="paint35_linear_148_18" x1="-6.5" y1="7.5" x2="37.5" y2="41" gradientUnits="userSpaceOnUse">
<stop stop-color="#EE00FF"/>
<stop offset="0.663888" stop-color="#EE5705"/>
<stop offset="1" stop-color="#EE05E7"/>
</linearGradient>
<linearGradient id="paint36_linear_148_18" x1="-6.5" y1="7.5" x2="37.5" y2="41" gradientUnits="userSpaceOnUse">
<stop stop-color="#EE00FF"/>
<stop offset="0.663888" stop-color="#EE5705"/>
<stop offset="1" stop-color="#EE05E7"/>
</linearGradient>
<linearGradient id="paint37_linear_148_18" x1="-6.5" y1="7.5" x2="37.5" y2="41" gradientUnits="userSpaceOnUse">
<stop stop-color="#EE00FF"/>
<stop offset="0.663888" stop-color="#EE5705"/>
<stop offset="1" stop-color="#EE05E7"/>
</linearGradient>
<linearGradient id="paint38_linear_148_18" x1="-6.5" y1="7.5" x2="37.5" y2="41" gradientUnits="userSpaceOnUse">
<stop stop-color="#EE00FF"/>
<stop offset="0.663888" stop-color="#EE5705"/>
<stop offset="1" stop-color="#EE05E7"/>
</linearGradient>
<linearGradient id="paint39_linear_148_18" x1="-6.5" y1="7.5" x2="37.5" y2="41" gradientUnits="userSpaceOnUse">
<stop stop-color="#EE00FF"/>
<stop offset="0.663888" stop-color="#EE5705"/>
<stop offset="1" stop-color="#EE05E7"/>
</linearGradient>
<linearGradient id="paint40_linear_148_18" x1="-6.5" y1="7.5" x2="37.5" y2="41" gradientUnits="userSpaceOnUse">
<stop stop-color="#EE00FF"/>
<stop offset="0.663888" stop-color="#EE5705"/>
<stop offset="1" stop-color="#EE05E7"/>
</linearGradient>
<linearGradient id="paint41_linear_148_18" x1="-6.5" y1="7.5" x2="37.5" y2="41" gradientUnits="userSpaceOnUse">
<stop stop-color="#EE00FF"/>
<stop offset="0.663888" stop-color="#EE5705"/>
<stop offset="1" stop-color="#EE05E7"/>
</linearGradient>
<linearGradient id="paint42_linear_148_18" x1="-6.5" y1="7.5" x2="37.5" y2="41" gradientUnits="userSpaceOnUse">
<stop stop-color="#EE00FF"/>
<stop offset="0.663888" stop-color="#EE5705"/>
<stop offset="1" stop-color="#EE05E7"/>
</linearGradient>
<linearGradient id="paint43_linear_148_18" x1="-6.5" y1="7.5" x2="37.5" y2="41" gradientUnits="userSpaceOnUse">
<stop stop-color="#EE00FF"/>
<stop offset="0.663888" stop-color="#EE5705"/>
<stop offset="1" stop-color="#EE05E7"/>
</linearGradient>
<linearGradient id="paint44_linear_148_18" x1="-6.5" y1="7.5" x2="37.5" y2="41" gradientUnits="userSpaceOnUse">
<stop stop-color="#EE00FF"/>
<stop offset="0.663888" stop-color="#EE5705"/>
<stop offset="1" stop-color="#EE05E7"/>
</linearGradient>
<linearGradient id="paint45_linear_148_18" x1="-6.5" y1="7.5" x2="37.5" y2="41" gradientUnits="userSpaceOnUse">
<stop stop-color="#EE00FF"/>
<stop offset="0.663888" stop-color="#EE5705"/>
<stop offset="1" stop-color="#EE05E7"/>
</linearGradient>
<linearGradient id="paint46_linear_148_18" x1="-6.5" y1="7.5" x2="37.5" y2="41" gradientUnits="userSpaceOnUse">
<stop stop-color="#EE00FF"/>
<stop offset="0.663888" stop-color="#EE5705"/>
<stop offset="1" stop-color="#EE05E7"/>
</linearGradient>
<linearGradient id="paint47_linear_148_18" x1="-6.5" y1="7.5" x2="37.5" y2="41" gradientUnits="userSpaceOnUse">
<stop stop-color="#EE00FF"/>
<stop offset="0.663888" stop-color="#EE5705"/>
<stop offset="1" stop-color="#EE05E7"/>
</linearGradient>
<linearGradient id="paint48_linear_148_18" x1="-6.5" y1="7.5" x2="37.5" y2="41" gradientUnits="userSpaceOnUse">
<stop stop-color="#EE00FF"/>
<stop offset="0.663888" stop-color="#EE5705"/>
<stop offset="1" stop-color="#EE05E7"/>
</linearGradient>
<linearGradient id="paint49_linear_148_18" x1="-6.5" y1="7.5" x2="37.5" y2="41" gradientUnits="userSpaceOnUse">
<stop stop-color="#EE00FF"/>
<stop offset="0.663888" stop-color="#EE5705"/>
<stop offset="1" stop-color="#EE05E7"/>
</linearGradient>
<linearGradient id="paint50_linear_148_18" x1="-6.5" y1="7.5" x2="37.5" y2="41" gradientUnits="userSpaceOnUse">
<stop stop-color="#EE00FF"/>
<stop offset="0.663888" stop-color="#EE5705"/>
<stop offset="1" stop-color="#EE05E7"/>
</linearGradient>
<linearGradient id="paint51_linear_148_18" x1="-6.5" y1="7.5" x2="37.5" y2="41" gradientUnits="userSpaceOnUse">
<stop stop-color="#EE00FF"/>
<stop offset="0.663888" stop-color="#EE5705"/>
<stop offset="1" stop-color="#EE05E7"/>
</linearGradient>
<linearGradient id="paint52_linear_148_18" x1="-6.5" y1="7.5" x2="37.5" y2="41" gradientUnits="userSpaceOnUse">
<stop stop-color="#EE00FF"/>
<stop offset="0.663888" stop-color="#EE5705"/>
<stop offset="1" stop-color="#EE05E7"/>
</linearGradient>
<linearGradient id="paint53_linear_148_18" x1="-6.5" y1="7.5" x2="37.5" y2="41" gradientUnits="userSpaceOnUse">
<stop stop-color="#EE00FF"/>
<stop offset="0.663888" stop-color="#EE5705"/>
<stop offset="1" stop-color="#EE05E7"/>
</linearGradient>
<linearGradient id="paint54_linear_148_18" x1="-6.5" y1="7.5" x2="37.5" y2="41" gradientUnits="userSpaceOnUse">
<stop stop-color="#EE00FF"/>
<stop offset="0.663888" stop-color="#EE5705"/>
<stop offset="1" stop-color="#EE05E7"/>
</linearGradient>
<linearGradient id="paint55_linear_148_18" x1="-6.5" y1="7.5" x2="37.5" y2="41" gradientUnits="userSpaceOnUse">
<stop stop-color="#EE00FF"/>
<stop offset="0.663888" stop-color="#EE5705"/>
<stop offset="1" stop-color="#EE05E7"/>
</linearGradient>
<linearGradient id="paint56_linear_148_18" x1="-6.5" y1="7.5" x2="37.5" y2="41" gradientUnits="userSpaceOnUse">
<stop stop-color="#EE00FF"/>
<stop offset="0.663888" stop-color="#EE5705"/>
<stop offset="1" stop-color="#EE05E7"/>
</linearGradient>
<linearGradient id="paint57_linear_148_18" x1="-6.5" y1="7.5" x2="37.5" y2="41" gradientUnits="userSpaceOnUse">
<stop stop-color="#EE00FF"/>
<stop offset="0.663888" stop-color="#EE5705"/>
<stop offset="1" stop-color="#EE05E7"/>
</linearGradient>
<linearGradient id="paint58_linear_148_18" x1="-6.5" y1="7.5" x2="37.5" y2="41" gradientUnits="userSpaceOnUse">
<stop stop-color="#EE00FF"/>
<stop offset="0.663888" stop-color="#EE5705"/>
<stop offset="1" stop-color="#EE05E7"/>
</linearGradient>
<linearGradient id="paint59_linear_148_18" x1="-6.5" y1="7.5" x2="37.5" y2="41" gradientUnits="userSpaceOnUse">
<stop stop-color="#EE00FF"/>
<stop offset="0.663888" stop-color="#EE5705"/>
<stop offset="1" stop-color="#EE05E7"/>
</linearGradient>
<linearGradient id="paint60_linear_148_18" x1="-6.5" y1="7.5" x2="37.5" y2="41" gradientUnits="userSpaceOnUse">
<stop stop-color="#EE00FF"/>
<stop offset="0.663888" stop-color="#EE5705"/>
<stop offset="1" stop-color="#EE05E7"/>
</linearGradient>
<linearGradient id="paint61_linear_148_18" x1="-6.5" y1="7.5" x2="37.5" y2="41" gradientUnits="userSpaceOnUse">
<stop stop-color="#EE00FF"/>
<stop offset="0.663888" stop-color="#EE5705"/>
<stop offset="1" stop-color="#EE05E7"/>
</linearGradient>
<linearGradient id="paint62_linear_148_18" x1="-6.5" y1="7.5" x2="37.5" y2="41" gradientUnits="userSpaceOnUse">
<stop stop-color="#EE00FF"/>
<stop offset="0.663888" stop-color="#EE5705"/>
<stop offset="1" stop-color="#EE05E7"/>
</linearGradient>
<linearGradient id="paint63_linear_148_18" x1="-6.5" y1="7.5" x2="37.5" y2="41" gradientUnits="userSpaceOnUse">
<stop stop-color="#EE00FF"/>
<stop offset="0.663888" stop-color="#EE5705"/>
<stop offset="1" stop-color="#EE05E7"/>
</linearGradient>
</defs>
</svg>
