<svg width="238" height="74" viewBox="0 0 238 74" fill="none" xmlns="http://www.w3.org/2000/svg">
<path d="M87.4702 47.5552V42.8505H89.1563C89.6468 42.8505 90.0352 42.9789 90.3214 43.2357C90.6098 43.4904 90.754 43.8378 90.754 44.2777C90.754 44.5703 90.6867 44.8239 90.5519 45.0387C90.4193 45.2513 90.2309 45.4165 89.9868 45.5344C89.7447 45.6502 89.4595 45.708 89.1311 45.708H88.0386V47.5552H87.4702ZM88.0386 45.2028H89.1374C89.4637 45.2028 89.7205 45.1208 89.9078 44.9566C90.0973 44.7903 90.192 44.564 90.192 44.2777C90.192 43.9914 90.0973 43.7662 89.9078 43.602C89.7205 43.4378 89.4637 43.3557 89.1374 43.3557H88.0386V45.2028Z" fill="white"/>
<path d="M92.5475 47.6309C92.2401 47.6309 91.9697 47.5573 91.736 47.4099C91.5044 47.2605 91.3234 47.0552 91.1929 46.7942C91.0645 46.5332 91.0003 46.2332 91.0003 45.8943C91.0003 45.5533 91.0645 45.2513 91.1929 44.9881C91.3234 44.725 91.5044 44.5187 91.736 44.3693C91.9697 44.2198 92.2401 44.1451 92.5475 44.1451C92.8569 44.1451 93.1274 44.2198 93.3589 44.3693C93.5905 44.5187 93.7705 44.725 93.8989 44.9881C94.0294 45.2513 94.0946 45.5533 94.0946 45.8943C94.0946 46.2332 94.0294 46.5332 93.8989 46.7942C93.7705 47.0552 93.5905 47.2605 93.3589 47.4099C93.1274 47.5573 92.8569 47.6309 92.5475 47.6309ZM92.5475 47.1447C92.8632 47.1447 93.1095 47.031 93.2863 46.8037C93.4631 46.5742 93.5515 46.2711 93.5515 45.8943C93.5515 45.5133 93.4621 45.2081 93.2832 44.9787C93.1063 44.7471 92.8611 44.6313 92.5475 44.6313C92.2338 44.6313 91.9875 44.7461 91.8086 44.9755C91.6318 45.205 91.5434 45.5112 91.5434 45.8943C91.5434 46.2732 91.6318 46.5763 91.8086 46.8037C91.9854 47.031 92.2317 47.1447 92.5475 47.1447Z" fill="white"/>
<path d="M95.3324 47.5552L94.2967 44.2209H94.8587L95.2787 45.6859C95.3376 45.888 95.3934 46.0943 95.446 46.3048C95.5008 46.5153 95.5555 46.7237 95.6102 46.93C95.665 46.7237 95.7197 46.5153 95.7744 46.3048C95.8291 46.0943 95.886 45.888 95.9449 45.6859L96.368 44.2209H96.8985L97.3153 45.6859C97.3721 45.8859 97.4268 46.0901 97.4795 46.2985C97.5342 46.5069 97.5889 46.7121 97.6436 46.9142C97.6984 46.7121 97.7531 46.5069 97.8078 46.2985C97.8626 46.0901 97.9194 45.8859 97.9783 45.6859L98.4077 44.2209H98.9698L97.9341 47.5552H97.3721L96.9332 46.0396C96.8806 45.8564 96.8301 45.6702 96.7816 45.4807C96.7332 45.2892 96.6838 45.0997 96.6332 44.9124C96.5848 45.0997 96.5354 45.2892 96.4848 45.4807C96.4343 45.6702 96.3828 45.8564 96.3301 46.0396L95.8818 47.5552H95.3324Z" fill="white"/>
<path d="M100.719 47.6309C100.393 47.6309 100.114 47.5562 99.8823 47.4068C99.6528 47.2573 99.4771 47.0521 99.355 46.7911C99.2329 46.5279 99.1719 46.229 99.1719 45.8943C99.1719 45.5554 99.2361 45.2544 99.3645 44.9913C99.4929 44.7282 99.6707 44.5219 99.8981 44.3724C100.125 44.2209 100.386 44.1451 100.681 44.1451C100.991 44.1451 101.259 44.2188 101.486 44.3661C101.714 44.5135 101.888 44.7187 102.01 44.9818C102.135 45.2449 102.197 45.5491 102.197 45.8943V46.0427H99.7023C99.7149 46.369 99.8086 46.6342 99.9833 46.8384C100.158 47.0426 100.403 47.1447 100.719 47.1447C100.957 47.1447 101.151 47.09 101.3 46.9805C101.452 46.871 101.553 46.73 101.603 46.5574H102.14C102.098 46.77 102.01 46.9574 101.878 47.1194C101.745 47.2794 101.579 47.4047 101.379 47.4952C101.181 47.5857 100.961 47.6309 100.719 47.6309ZM99.7086 45.5817H101.66C101.63 45.2892 101.528 45.0565 101.354 44.8839C101.179 44.7113 100.955 44.625 100.681 44.625C100.407 44.625 100.184 44.7113 100.012 44.8839C99.8391 45.0565 99.7381 45.2892 99.7086 45.5817Z" fill="white"/>
<path d="M102.809 47.5552V44.2209H103.321V44.745H103.333C103.394 44.5724 103.491 44.4335 103.624 44.3282C103.757 44.223 103.927 44.1704 104.135 44.1704C104.184 44.1704 104.228 44.1725 104.268 44.1767C104.31 44.1809 104.342 44.1851 104.363 44.1893V44.7261C104.342 44.7198 104.301 44.7124 104.24 44.704C104.181 44.6934 104.112 44.6882 104.034 44.6882C103.849 44.6882 103.688 44.7534 103.551 44.8839C103.414 45.0144 103.346 45.2207 103.346 45.5028V47.5552H102.809Z" fill="white"/>
<path d="M106.207 47.6309C105.88 47.6309 105.602 47.5562 105.37 47.4068C105.141 47.2573 104.965 47.0521 104.843 46.7911C104.721 46.5279 104.66 46.229 104.66 45.8943C104.66 45.5554 104.724 45.2544 104.852 44.9913C104.981 44.7282 105.158 44.5219 105.386 44.3724C105.613 44.2209 105.874 44.1451 106.169 44.1451C106.478 44.1451 106.747 44.2188 106.974 44.3661C107.201 44.5135 107.376 44.7187 107.498 44.9818C107.622 45.2449 107.684 45.5491 107.684 45.8943V46.0427H105.19C105.203 46.369 105.296 46.6342 105.471 46.8384C105.646 47.0426 105.891 47.1447 106.207 47.1447C106.445 47.1447 106.638 47.09 106.788 46.9805C106.939 46.871 107.04 46.73 107.091 46.5574H107.628C107.585 46.77 107.498 46.9574 107.366 47.1194C107.233 47.2794 107.067 47.4047 106.867 47.4952C106.669 47.5857 106.449 47.6309 106.207 47.6309ZM105.196 45.5817H107.148C107.118 45.2892 107.016 45.0565 106.841 44.8839C106.667 44.7113 106.442 44.625 106.169 44.625C105.895 44.625 105.672 44.7113 105.499 44.8839C105.327 45.0565 105.226 45.2892 105.196 45.5817Z" fill="white"/>
<path d="M109.573 47.6183C109.284 47.6183 109.031 47.5457 108.812 47.4005C108.595 47.2531 108.426 47.05 108.306 46.7911C108.186 46.53 108.126 46.229 108.126 45.888C108.126 45.5449 108.186 45.2439 108.306 44.985C108.426 44.724 108.595 44.5208 108.812 44.3756C109.031 44.2303 109.284 44.1577 109.573 44.1577C109.789 44.1577 109.99 44.204 110.176 44.2966C110.361 44.3872 110.507 44.5261 110.615 44.7134H110.621V42.8505H111.158V47.5552H110.634V47.05H110.627C110.507 47.2415 110.356 47.3847 110.173 47.4794C109.989 47.572 109.789 47.6183 109.573 47.6183ZM109.655 47.1352C109.964 47.1352 110.209 47.0216 110.39 46.7942C110.574 46.5669 110.665 46.2648 110.665 45.888C110.665 45.5112 110.574 45.2092 110.39 44.9818C110.209 44.7524 109.964 44.6377 109.655 44.6377C109.366 44.6377 109.129 44.744 108.944 44.9566C108.761 45.1692 108.67 45.4797 108.67 45.888C108.67 46.2964 108.761 46.6069 108.944 46.8195C109.129 47.03 109.366 47.1352 109.655 47.1352Z" fill="white"/>
<path d="M113.639 47.5552V42.8505H115.338C115.81 42.8505 116.18 42.9631 116.45 43.1884C116.719 43.4136 116.854 43.7178 116.854 44.1009C116.854 44.3703 116.786 44.5871 116.652 44.7513C116.517 44.9155 116.33 45.0376 116.09 45.1176V45.1239C116.357 45.1681 116.583 45.2807 116.768 45.4618C116.954 45.6407 117.046 45.8985 117.046 46.2353C117.046 46.6374 116.907 46.9584 116.63 47.1984C116.352 47.4362 115.93 47.5552 115.363 47.5552H113.639ZM114.208 47.05H115.363C115.719 47.05 115.992 46.9837 116.181 46.851C116.373 46.7163 116.469 46.5185 116.469 46.2574C116.469 45.9964 116.376 45.7912 116.191 45.6417C116.005 45.4902 115.74 45.4144 115.395 45.4144H114.208V47.05ZM114.208 44.9155H115.36C115.653 44.9155 115.881 44.8461 116.045 44.7071C116.21 44.5661 116.292 44.3756 116.292 44.1356C116.292 43.8957 116.21 43.7062 116.045 43.5673C115.881 43.4262 115.653 43.3557 115.36 43.3557H114.208V44.9155Z" fill="white"/>
<path d="M117.725 48.875V48.4014H118.054C118.251 48.4014 118.402 48.2677 118.505 48.0004L118.688 47.5268L117.397 44.2209H117.978L118.698 46.1406C118.744 46.2648 118.789 46.3901 118.833 46.5164C118.88 46.6406 118.924 46.7647 118.966 46.8889C119.01 46.7647 119.054 46.6406 119.099 46.5164C119.145 46.3901 119.191 46.2648 119.238 46.1406L119.945 44.2209H120.516L118.979 48.174C118.892 48.3972 118.769 48.5698 118.609 48.6919C118.449 48.8139 118.264 48.875 118.054 48.875H117.725Z" fill="white"/>
<path d="M90.861 59.4334C89.7864 59.4334 88.9446 59.1715 88.3355 58.6478C87.7303 58.1202 87.4277 57.3928 87.4277 56.4656H88.9349C88.9427 56.9893 89.1153 57.3986 89.4528 57.6934C89.7942 57.9883 90.2675 58.1357 90.8727 58.1357C91.4119 58.1357 91.8464 58.0232 92.1762 57.7982C92.5059 57.5693 92.6708 57.2648 92.6708 56.8846C92.6708 56.5781 92.5466 56.3298 92.2984 56.1397C92.0501 55.9458 91.6369 55.7828 91.0589 55.6509L90.1278 55.4414C89.2627 55.2436 88.6245 54.9507 88.2133 54.5627C87.8021 54.1748 87.5965 53.6763 87.5965 53.0672C87.5965 52.5513 87.7284 52.0993 87.9922 51.7114C88.2599 51.3234 88.6323 51.0228 89.1095 50.8094C89.5905 50.5921 90.1492 50.4835 90.7854 50.4835C91.7552 50.4835 92.5234 50.7299 93.0898 51.2225C93.66 51.7152 93.9568 52.3922 93.9801 53.2534H92.5195C92.4885 52.7957 92.3178 52.4368 92.0074 52.1769C91.6971 51.917 91.2878 51.787 90.7796 51.787C90.2985 51.787 89.9048 51.8995 89.5983 52.1245C89.2918 52.3495 89.1386 52.6385 89.1386 52.9916C89.1386 53.2825 89.2588 53.5192 89.4994 53.7015C89.7438 53.88 90.1492 54.0332 90.7156 54.1612L91.5942 54.3649C92.4943 54.5627 93.1538 54.8576 93.5728 55.2494C93.9917 55.6412 94.2012 56.1553 94.2012 56.7915C94.2012 57.3307 94.0654 57.7982 93.7939 58.1939C93.5223 58.5896 93.1363 58.8961 92.6359 59.1133C92.1354 59.3267 91.5438 59.4334 90.861 59.4334Z" fill="white"/>
<path d="M97.9895 59.4334C97.3765 59.4334 96.8451 59.2957 96.3951 59.0202C95.945 58.7448 95.5978 58.3665 95.3534 57.8855C95.1129 57.4005 94.9926 56.8477 94.9926 56.227C94.9926 55.6024 95.1168 55.0496 95.3651 54.5686C95.6172 54.0836 95.9644 53.7034 96.4067 53.428C96.8489 53.1487 97.3572 53.009 97.9313 53.009C98.521 53.009 99.0369 53.1448 99.4792 53.4164C99.9215 53.6879 100.265 54.0642 100.509 54.5453C100.754 55.0225 100.876 55.5753 100.876 56.2037V56.6053H96.43C96.4494 57.1057 96.5968 57.5092 96.8722 57.8156C97.1477 58.1221 97.5317 58.2754 98.0244 58.2754C98.393 58.2754 98.6975 58.1958 98.938 58.0368C99.1785 57.8738 99.3415 57.6605 99.4268 57.3967H100.8C100.723 57.7963 100.552 58.1493 100.288 58.4558C100.028 58.7622 99.7003 59.0028 99.3046 59.1773C98.9089 59.348 98.4705 59.4334 97.9895 59.4334ZM96.4416 55.5927H99.4676C99.421 55.1544 99.262 54.8091 98.9904 54.5569C98.7227 54.3009 98.3774 54.1729 97.9546 54.1729C97.5278 54.1729 97.1806 54.3009 96.913 54.5569C96.6492 54.8091 96.492 55.1544 96.4416 55.5927Z" fill="white"/>
<path d="M103.343 55.8197V59.2937H101.877V53.1487H103.32V54.0914C103.747 53.3815 104.375 53.0265 105.205 53.0265C105.849 53.0265 106.375 53.234 106.782 53.6491C107.193 54.0642 107.399 54.6655 107.399 55.4531V59.2937H105.927V55.6858C105.927 55.2358 105.818 54.8944 105.601 54.6617C105.384 54.4289 105.079 54.3125 104.687 54.3125C104.303 54.3125 103.983 54.4328 103.727 54.6733C103.471 54.9138 103.343 55.296 103.343 55.8197Z" fill="white"/>
<path d="M111.083 59.4159C110.547 59.4159 110.08 59.2821 109.68 59.0144C109.281 58.7467 108.97 58.3743 108.749 57.8971C108.532 57.4161 108.423 56.8555 108.423 56.2154C108.423 55.5869 108.534 55.0341 108.755 54.5569C108.976 54.0759 109.286 53.7015 109.686 53.4338C110.086 53.1623 110.547 53.0265 111.071 53.0265C111.471 53.0265 111.829 53.108 112.147 53.2709C112.466 53.4338 112.724 53.6841 112.921 54.0216H112.933V50.6232H114.4V59.2937H112.956V58.3568H112.945C112.751 58.7137 112.491 58.9795 112.165 59.1541C111.843 59.3286 111.482 59.4159 111.083 59.4159ZM111.426 58.1881C111.907 58.1881 112.291 58.0096 112.578 57.6527C112.869 57.2919 113.015 56.8128 113.015 56.2154C113.015 55.6179 112.869 55.1408 112.578 54.7839C112.291 54.4231 111.907 54.2427 111.426 54.2427C110.972 54.2427 110.605 54.4134 110.326 54.7548C110.047 55.0962 109.907 55.583 109.907 56.2154C109.907 56.8516 110.047 57.3404 110.326 57.6818C110.605 58.0193 110.972 58.1881 111.426 58.1881Z" fill="white"/>
<path d="M115.127 59.2937L118.223 50.6232H120.155L123.239 59.2937H121.545L120.853 57.2221H117.489L116.78 59.2937H115.127ZM117.92 55.9593H120.434L120.027 54.7373C119.899 54.3377 119.767 53.9207 119.631 53.4862C119.499 53.0517 119.352 52.561 119.189 52.014C119.026 52.561 118.876 53.0517 118.741 53.4862C118.605 53.9207 118.471 54.3377 118.339 54.7373L117.92 55.9593Z" fill="white"/>
<path d="M123.966 59.2937V53.1487H125.38V54.167H125.398C125.51 53.8179 125.687 53.5521 125.927 53.3698C126.172 53.1836 126.492 53.0905 126.887 53.0905C126.988 53.0905 127.078 53.0944 127.155 53.1021C127.237 53.106 127.306 53.1099 127.365 53.1138V54.4173C127.31 54.4095 127.217 54.3998 127.085 54.3882C126.953 54.3765 126.816 54.3707 126.672 54.3707C126.323 54.3707 126.028 54.491 125.788 54.7315C125.551 54.972 125.433 55.3328 125.433 55.8139V59.2937H123.966Z" fill="white"/>
<path d="M130.85 59.4334C130.253 59.4334 129.727 59.2976 129.273 59.026C128.823 58.7545 128.472 58.3782 128.22 57.8971C127.972 57.4161 127.848 56.8594 127.848 56.227C127.848 55.5947 127.972 55.038 128.22 54.5569C128.472 54.072 128.823 53.6937 129.273 53.4222C129.727 53.1467 130.253 53.009 130.85 53.009C131.366 53.009 131.826 53.1099 132.229 53.3116C132.633 53.5095 132.957 53.7849 133.201 54.1379C133.449 54.4871 133.595 54.8906 133.638 55.3483H132.2C132.146 55.0186 132.004 54.7509 131.776 54.5453C131.55 54.3358 131.248 54.2311 130.868 54.2311C130.387 54.2311 130.01 54.4114 129.739 54.7722C129.467 55.133 129.331 55.6179 129.331 56.227C129.331 56.8322 129.467 57.3152 129.739 57.676C130.01 58.0329 130.387 58.2114 130.868 58.2114C131.252 58.2114 131.55 58.1105 131.764 57.9088C131.977 57.7031 132.119 57.4296 132.189 57.0883H133.638C133.603 57.5383 133.461 57.9398 133.213 58.2928C132.968 58.6458 132.643 58.9252 132.235 59.1308C131.832 59.3325 131.37 59.4334 130.85 59.4334Z" fill="white"/>
<path d="M136.582 59.3926C135.969 59.3926 135.461 59.2394 135.058 58.9329C134.658 58.6226 134.458 58.1609 134.458 57.548C134.458 57.0824 134.571 56.7236 134.796 56.4714C135.025 56.2154 135.321 56.0292 135.686 55.9128C136.055 55.7964 136.45 55.7169 136.873 55.6742C137.443 55.6082 137.841 55.5501 138.066 55.4996C138.291 55.4492 138.404 55.3192 138.404 55.1097V55.0632C138.404 54.7994 138.303 54.5841 138.101 54.4173C137.903 54.2504 137.63 54.167 137.28 54.167C136.924 54.167 136.633 54.2504 136.408 54.4173C136.186 54.5841 136.066 54.7974 136.047 55.0574H134.633C134.668 54.4483 134.922 53.9576 135.395 53.5851C135.868 53.2127 136.506 53.0265 137.31 53.0265C138.109 53.0265 138.733 53.2127 139.183 53.5851C139.633 53.9576 139.858 54.4638 139.858 55.1039V59.2937H138.415V58.4267H138.392C138.244 58.6982 138.031 58.9271 137.752 59.1133C137.472 59.2995 137.083 59.3926 136.582 59.3926ZM136.943 58.3045C137.424 58.3045 137.789 58.1803 138.037 57.932C138.285 57.6799 138.409 57.3753 138.409 57.0184V56.355C138.32 56.4132 138.147 56.4675 137.891 56.518C137.635 56.5645 137.356 56.6111 137.053 56.6576C136.739 56.7042 136.466 56.7934 136.233 56.9253C136.004 57.0533 135.89 57.257 135.89 57.5363C135.89 57.7769 135.985 57.965 136.175 58.1008C136.365 58.2366 136.621 58.3045 136.943 58.3045Z" fill="white"/>
<path d="M143.53 59.4159C142.995 59.4159 142.527 59.2821 142.128 59.0144C141.728 58.7467 141.418 58.3743 141.197 57.8971C140.979 57.4161 140.871 56.8555 140.871 56.2154C140.871 55.5869 140.981 55.0341 141.203 54.5569C141.424 54.0759 141.734 53.7015 142.134 53.4338C142.533 53.1623 142.995 53.0265 143.519 53.0265C143.918 53.0265 144.277 53.108 144.595 53.2709C144.913 53.4338 145.171 53.6841 145.369 54.0216H145.381V50.6232H146.847V59.2937H145.404V58.3568H145.392C145.198 58.7137 144.938 58.9795 144.613 59.1541C144.291 59.3286 143.93 59.4159 143.53 59.4159ZM143.874 58.1881C144.355 58.1881 144.739 58.0096 145.026 57.6527C145.317 57.2919 145.462 56.8128 145.462 56.2154C145.462 55.6179 145.317 55.1408 145.026 54.7839C144.739 54.4231 144.355 54.2427 143.874 54.2427C143.42 54.2427 143.053 54.4134 142.774 54.7548C142.494 55.0962 142.355 55.583 142.355 56.2154C142.355 56.8516 142.494 57.3404 142.774 57.6818C143.053 58.0193 143.42 58.1881 143.874 58.1881Z" fill="white"/>
<path d="M150.862 59.4334C150.249 59.4334 149.718 59.2957 149.268 59.0202C148.818 58.7448 148.471 58.3665 148.226 57.8855C147.986 57.4005 147.865 56.8477 147.865 56.227C147.865 55.6024 147.99 55.0496 148.238 54.5686C148.49 54.0836 148.837 53.7034 149.28 53.428C149.722 53.1487 150.23 53.009 150.804 53.009C151.394 53.009 151.91 53.1448 152.352 53.4164C152.794 53.6879 153.138 54.0642 153.382 54.5453C153.626 55.0225 153.749 55.5753 153.749 56.2037V56.6053H149.303C149.322 57.1057 149.47 57.5092 149.745 57.8156C150.02 58.1221 150.405 58.2754 150.897 58.2754C151.266 58.2754 151.57 58.1958 151.811 58.0368C152.051 57.8738 152.214 57.6605 152.3 57.3967H153.673C153.595 57.7963 153.425 58.1493 153.161 58.4558C152.901 58.7622 152.573 59.0028 152.177 59.1773C151.782 59.348 151.343 59.4334 150.862 59.4334ZM149.314 55.5927H152.34C152.294 55.1544 152.135 54.8091 151.863 54.5569C151.596 54.3009 151.25 54.1729 150.827 54.1729C150.401 54.1729 150.053 54.3009 149.786 54.5569C149.522 54.8091 149.365 55.1544 149.314 55.5927Z" fill="white"/>
<path d="M94.8525 35.7289H97.3274V38.2038H94.8525V35.7289ZM94.8525 33.254H97.3274V35.7289H94.8525V33.254ZM94.8525 30.779H97.3274V33.254H94.8525V30.779ZM92.3776 33.254H94.8525V35.7289H92.3776V33.254ZM92.3776 30.779H94.8525V33.254H92.3776V30.779ZM92.3776 28.3041H94.8525V30.779H92.3776V28.3041ZM89.9027 30.779H92.3776V33.254H89.9027V30.779ZM89.9027 28.3041H92.3776V30.779H89.9027V28.3041ZM97.3274 30.779H99.8024V33.254H97.3274V30.779ZM97.3274 33.254H99.8024V35.7289H97.3274V33.254ZM97.3274 28.3041H99.8024V30.779H97.3274V28.3041ZM99.8024 28.3041H102.277V30.779H99.8024V28.3041ZM99.8024 30.779H102.277V33.254H99.8024V30.779ZM102.277 28.3041H104.752V30.779H102.277V28.3041ZM87.4277 28.3041H89.9027V30.779H87.4277V28.3041ZM99.8024 13.4545H102.277V15.9295H99.8024V13.4545ZM102.277 13.4545H104.752V15.9295H102.277V13.4545ZM102.277 15.9295H104.752V18.4044H102.277V15.9295ZM102.277 18.4044H104.752V20.8793H102.277V18.4044ZM102.277 20.8793H104.752V23.3542H102.277V20.8793ZM102.277 23.3542H104.752V25.8292H102.277V23.3542ZM99.8024 23.3542H102.277V25.8292H99.8024V23.3542ZM99.8024 25.8292H102.277V28.3041H99.8024V25.8292ZM99.8024 20.8793H102.277V23.3542H99.8024V20.8793ZM99.8024 18.4044H102.277V20.8793H99.8024V18.4044ZM99.8024 15.9295H102.277V18.4044H99.8024V15.9295ZM102.277 25.8292H104.752V28.3041H102.277V25.8292ZM89.9027 25.8292H92.3776V28.3041H89.9027V25.8292ZM87.4277 25.8292H89.9027V28.3041H87.4277V25.8292ZM87.4277 23.3542H89.9027V25.8292H87.4277V23.3542ZM89.9027 23.3542H92.3776V25.8292H89.9027V23.3542ZM89.9027 20.8793H92.3776V23.3542H89.9027V20.8793ZM87.4277 20.8793H89.9027V23.3542H87.4277V20.8793ZM87.4277 18.4044H89.9027V20.8793H87.4277V18.4044ZM89.9027 18.4044H92.3776V20.8793H89.9027V18.4044ZM87.4277 13.4545H89.9027V15.9295H87.4277V13.4545ZM89.9027 13.4545H92.3776V15.9295H89.9027V13.4545ZM89.9027 15.9295H92.3776V18.4044H89.9027V15.9295ZM87.4277 15.9295H89.9027V18.4044H87.4277V15.9295Z" fill="white"/>
<path d="M108.158 35.7289H110.633V38.2038H108.158V35.7289ZM110.633 35.7289H113.107V38.2038H110.633V35.7289ZM110.633 33.254H113.107V35.7289H110.633V33.254ZM110.633 30.779H113.107V33.254H110.633V30.779ZM110.633 28.3041H113.107V30.779H110.633V28.3041ZM110.633 25.8292H113.107V28.3041H110.633V25.8292ZM110.633 23.3542H113.107V25.8292H110.633V23.3542ZM108.158 23.3542H110.633V25.8292H108.158V23.3542ZM108.158 25.8292H110.633V28.3041H108.158V25.8292ZM108.158 28.3041H110.633V30.779H108.158V28.3041ZM108.158 30.779H110.633V33.254H108.158V30.779ZM108.158 33.254H110.633V35.7289H108.158V33.254ZM108.158 20.8793H110.633V23.3542H108.158V20.8793ZM110.633 20.8793H113.107V23.3542H110.633V20.8793ZM110.633 18.4044H113.107V20.8793H110.633V18.4044ZM110.633 15.9295H113.107V18.4044H110.633V15.9295ZM110.633 13.4545H113.107V15.9295H110.633V13.4545ZM108.158 13.4545H110.633V15.9295H108.158V13.4545ZM108.158 15.9295H110.633V18.4044H108.158V15.9295ZM108.158 18.4044H110.633V20.8793H108.158V18.4044Z" fill="white"/>
<path d="M116.526 13.4545H119.001V15.9295H116.526V13.4545ZM119.001 13.4545H121.476V15.9295H119.001V13.4545ZM121.476 13.4545H123.95V15.9295H121.476V13.4545ZM123.95 13.4545H126.425V15.9295H123.95V13.4545ZM126.425 13.4545H128.9V15.9295H126.425V13.4545ZM128.9 13.4545H131.375V15.9295H128.9V13.4545ZM128.9 15.9295H131.375V18.4044H128.9V15.9295ZM126.425 15.9295H128.9V18.4044H126.425V15.9295ZM123.95 15.9295H126.425V18.4044H123.95V15.9295ZM121.476 15.9295H123.95V18.4044H121.476V15.9295ZM119.001 15.9295H121.476V18.4044H119.001V15.9295ZM116.526 15.9295H119.001V18.4044H116.526V15.9295ZM131.375 15.9295H133.85V18.4044H131.375V15.9295ZM131.375 18.4044H133.85V20.8793H131.375V18.4044ZM131.375 20.8793H133.85V23.3542H131.375V20.8793ZM128.9 20.8793H131.375V23.3542H128.9V20.8793ZM128.9 18.4044H131.375V20.8793H128.9V18.4044ZM128.9 23.3542H131.375V25.8292H128.9V23.3542ZM126.425 23.3542H128.9V25.8292H126.425V23.3542ZM123.95 23.3542H126.425V25.8292H123.95V23.3542ZM121.476 23.3542H123.95V25.8292H121.476V23.3542ZM119.001 23.3542H121.476V25.8292H119.001V23.3542ZM119.001 20.8793H121.476V23.3542H119.001V20.8793ZM119.001 18.4044H121.476V20.8793H119.001V18.4044ZM116.526 18.4044H119.001V20.8793H116.526V18.4044ZM116.526 20.8793H119.001V23.3542H116.526V20.8793ZM116.526 23.3542H119.001V25.8292H116.526V23.3542ZM116.526 25.8292H119.001V28.3041H116.526V25.8292ZM119.001 25.8292H121.476V28.3041H119.001V25.8292ZM121.476 25.8292H123.95V28.3041H121.476V25.8292ZM123.95 25.8292H126.425V28.3041H123.95V25.8292ZM126.425 25.8292H128.9V28.3041H126.425V25.8292ZM128.9 25.8292H131.375V28.3041H128.9V25.8292ZM131.375 25.8292H133.85V28.3041H131.375V25.8292ZM131.375 28.3041H133.85V30.779H131.375V28.3041ZM128.9 28.3041H131.375V30.779H128.9V28.3041ZM128.9 33.254H131.375V35.7289H128.9V33.254ZM131.375 33.254H133.85V35.7289H131.375V33.254ZM131.375 30.779H133.85V33.254H131.375V30.779ZM128.9 30.779H131.375V33.254H128.9V30.779ZM128.9 35.7289H131.375V38.2038H128.9V35.7289ZM126.425 35.7289H128.9V38.2038H126.425V35.7289ZM123.95 35.7289H126.425V38.2038H123.95V35.7289ZM121.476 35.7289H123.95V38.2038H121.476V35.7289ZM119.001 35.7289H121.476V38.2038H119.001V35.7289ZM116.526 35.7289H119.001V38.2038H116.526V35.7289ZM116.526 33.254H119.001V35.7289H116.526V33.254ZM116.526 30.779H119.001V33.254H116.526V30.779ZM116.526 28.3041H119.001V30.779H116.526V28.3041ZM119.001 28.3041H121.476V30.779H119.001V28.3041ZM119.001 30.779H121.476V33.254H119.001V30.779ZM119.001 33.254H121.476V35.7289H119.001V33.254ZM121.476 33.254H123.95V35.7289H121.476V33.254ZM123.95 33.254H126.425V35.7289H123.95V33.254ZM126.425 33.254H128.9V35.7289H126.425V33.254Z" fill="white"/>
<path d="M137.256 13.4545H139.73V15.9295H137.256V13.4545ZM139.73 13.4545H142.205V15.9295H139.73V13.4545ZM139.73 15.9295H142.205V18.4044H139.73V15.9295ZM139.73 18.4044H142.205V20.8793H139.73V18.4044ZM139.73 20.8793H142.205V23.3542H139.73V20.8793ZM137.256 20.8793H139.73V23.3542H137.256V20.8793ZM137.256 18.4044H139.73V20.8793H137.256V18.4044ZM137.256 15.9295H139.73V18.4044H137.256V15.9295ZM137.256 23.3542H139.73V25.8292H137.256V23.3542ZM137.256 25.8292H139.73V28.3041H137.256V25.8292ZM137.256 28.3041H139.73V30.779H137.256V28.3041ZM139.73 25.8292H142.205V28.3041H139.73V25.8292ZM139.73 23.3542H142.205V25.8292H139.73V23.3542ZM139.73 28.3041H142.205V30.779H139.73V28.3041ZM139.73 30.779H142.205V33.254H139.73V30.779ZM137.256 33.254H139.73V35.7289H137.256V33.254ZM137.256 30.779H139.73V33.254H137.256V30.779ZM137.256 35.7289H139.73V38.2038H137.256V35.7289ZM139.73 35.7289H142.205V38.2038H139.73V35.7289ZM139.73 33.254H142.205V35.7289H139.73V33.254ZM142.205 35.7289H144.68V38.2038H142.205V35.7289ZM144.68 35.7289H147.155V38.2038H144.68V35.7289ZM147.155 35.7289H149.63V38.2038H147.155V35.7289ZM147.155 33.254H149.63V35.7289H147.155V33.254ZM144.68 33.254H147.155V35.7289H144.68V33.254ZM142.205 33.254H144.68V35.7289H142.205V33.254ZM142.205 13.4545H144.68V15.9295H142.205V13.4545ZM144.68 13.4545H147.155V15.9295H144.68V13.4545ZM147.155 13.4545H149.63V15.9295H147.155V13.4545ZM149.63 13.4545H152.105V15.9295H149.63V13.4545ZM147.155 15.9295H149.63V18.4044H147.155V15.9295ZM144.68 15.9295H147.155V18.4044H144.68V15.9295ZM142.205 15.9295H144.68V18.4044H142.205V15.9295ZM142.205 25.8292H144.68V28.3041H142.205V25.8292ZM144.68 23.3542H147.155V25.8292H144.68V23.3542ZM142.205 23.3542H144.68V25.8292H142.205V23.3542ZM144.68 25.8292H147.155V28.3041H144.68V25.8292ZM149.63 15.9295H152.105V18.4044H149.63V15.9295ZM149.63 33.254H152.105V35.7289H149.63V33.254ZM149.63 35.7289H152.105V38.2038H149.63V35.7289ZM147.155 23.3542H149.63V25.8292H147.155V23.3542ZM147.155 25.8292H149.63V28.3041H147.155V25.8292Z" fill="white"/>
<path d="M160.454 13.4545H162.929V15.9295H160.454V13.4545ZM157.979 13.4545H160.454V15.9295H157.979V13.4545ZM157.979 15.9295H160.454V18.4044H157.979V15.9295ZM160.454 15.9295H162.929V18.4044H160.454V15.9295ZM162.929 15.9295H165.404V18.4044H162.929V15.9295ZM162.929 13.4545H165.404V15.9295H162.929V13.4545ZM165.404 13.4545H167.879V15.9295H165.404V13.4545ZM167.879 13.4545H170.354V15.9295H167.879V13.4545ZM167.879 15.9295H170.354V18.4044H167.879V15.9295ZM165.404 15.9295H167.879V18.4044H165.404V15.9295ZM167.879 18.4044H170.354V20.8793H167.879V18.4044ZM170.354 15.9295H172.828V18.4044H170.354V15.9295ZM170.354 18.4044H172.828V20.8793H170.354V18.4044ZM170.354 30.779H172.828V33.254H170.354V30.779ZM170.354 33.254H172.828V35.7289H170.354V33.254ZM167.879 33.254H170.354V35.7289H167.879V33.254ZM167.879 30.779H170.354V33.254H167.879V30.779ZM165.404 33.254H167.879V35.7289H165.404V33.254ZM167.879 35.7289H170.354V38.2038H167.879V35.7289ZM165.404 35.7289H167.879V38.2038H165.404V35.7289ZM162.929 35.7289H165.404V38.2038H162.929V35.7289ZM162.929 33.254H165.404V35.7289H162.929V33.254ZM160.454 35.7289H162.929V38.2038H160.454V35.7289ZM157.979 35.7289H160.454V38.2038H157.979V35.7289ZM157.979 33.254H160.454V35.7289H157.979V33.254ZM160.454 33.254H162.929V35.7289H160.454V33.254ZM160.454 30.779H162.929V33.254H160.454V30.779ZM157.979 30.779H160.454V33.254H157.979V30.779ZM155.504 33.254H157.979V35.7289H155.504V33.254ZM155.504 30.779H157.979V33.254H155.504V30.779ZM155.504 28.3041H157.979V30.779H155.504V28.3041ZM155.504 25.8292H157.979V28.3041H155.504V25.8292ZM155.504 23.3542H157.979V25.8292H155.504V23.3542ZM155.504 20.8793H157.979V23.3542H155.504V20.8793ZM155.504 18.4044H157.979V20.8793H155.504V18.4044ZM157.979 18.4044H160.454V20.8793H157.979V18.4044ZM155.504 15.9295H157.979V18.4044H155.504V15.9295ZM160.454 18.4044H162.929V20.8793H160.454V18.4044ZM157.979 20.8793H160.454V23.3542H157.979V20.8793ZM157.979 23.3542H160.454V25.8292H157.979V23.3542ZM157.979 25.8292H160.454V28.3041H157.979V25.8292ZM157.979 28.3041H160.454V30.779H157.979V28.3041ZM170.354 28.3041H172.828V30.779H170.354V28.3041ZM167.879 28.3041H170.354V30.779H167.879V28.3041ZM167.879 25.8292H170.354V28.3041H167.879V25.8292ZM170.354 25.8292H172.828V28.3041H170.354V25.8292ZM170.354 23.3542H172.828V25.8292H170.354V23.3542ZM167.879 23.3542H170.354V25.8292H167.879V23.3542ZM165.404 23.3542H167.879V25.8292H165.404V23.3542ZM162.929 23.3542H165.404V25.8292H162.929V23.3542ZM162.929 25.8292H165.404V28.3041H162.929V25.8292ZM165.404 25.8292H167.879V28.3041H165.404V25.8292Z" fill="white"/>
<path d="M181.184 15.9295H183.659V18.4044H181.184V15.9295ZM183.659 15.9295H186.134V18.4044H183.659V15.9295ZM183.659 13.4545H186.134V15.9295H183.659V13.4545ZM186.134 15.9295H188.608V18.4044H186.134V15.9295ZM186.134 18.4044H188.608V20.8793H186.134V18.4044ZM188.608 18.4044H191.083V20.8793H188.608V18.4044ZM183.659 18.4044H186.134V20.8793H183.659V18.4044ZM181.184 18.4044H183.659V20.8793H181.184V18.4044ZM178.709 18.4044H181.184V20.8793H178.709V18.4044ZM178.709 20.8793H181.184V23.3542H178.709V20.8793ZM176.234 20.8793H178.709V23.3542H176.234V20.8793ZM181.184 20.8793H183.659V23.3542H181.184V20.8793ZM178.709 23.3542H181.184V25.8292H178.709V23.3542ZM178.709 25.8292H181.184V28.3041H178.709V25.8292ZM178.709 28.3041H181.184V30.779H178.709V28.3041ZM181.184 28.3041H183.659V30.779H181.184V28.3041ZM183.659 28.3041H186.134V30.779H183.659V28.3041ZM186.134 28.3041H188.608V30.779H186.134V28.3041ZM188.608 28.3041H191.083V30.779H188.608V28.3041ZM191.083 28.3041H193.558V30.779H191.083V28.3041ZM191.083 25.8292H193.558V28.3041H191.083V25.8292ZM191.083 23.3542H193.558V25.8292H191.083V23.3542ZM191.083 20.8793H193.558V23.3542H191.083V20.8793ZM188.608 20.8793H191.083V23.3542H188.608V20.8793ZM186.134 20.8793H188.608V23.3542H186.134V20.8793ZM188.608 23.3542H191.083V25.8292H188.608V23.3542ZM188.608 25.8292H191.083V28.3041H188.608V25.8292ZM188.608 30.779H191.083V33.254H188.608V30.779ZM191.083 30.779H193.558V33.254H191.083V30.779ZM191.083 33.254H193.558V35.7289H191.083V33.254ZM191.083 35.7289H193.558V38.2038H191.083V35.7289ZM188.608 35.7289H191.083V38.2038H188.608V35.7289ZM188.608 33.254H191.083V35.7289H188.608V33.254ZM186.134 30.779H188.608V33.254H186.134V30.779ZM183.659 30.779H186.134V33.254H183.659V30.779ZM181.184 30.779H183.659V33.254H181.184V30.779ZM178.709 30.779H181.184V33.254H178.709V30.779ZM178.709 33.254H181.184V35.7289H178.709V33.254ZM178.709 35.7289H181.184V38.2038H178.709V35.7289ZM176.234 35.7289H178.709V38.2038H176.234V35.7289ZM176.234 33.254H178.709V35.7289H176.234V33.254ZM176.234 30.779H178.709V33.254H176.234V30.779ZM176.234 28.3041H178.709V30.779H176.234V28.3041ZM176.234 25.8292H178.709V28.3041H176.234V25.8292ZM176.234 23.3542H178.709V25.8292H176.234V23.3542Z" fill="white"/>
<path d="M196.964 35.7289H199.439V38.2038H196.964V35.7289ZM196.964 33.254H199.439V35.7289H196.964V33.254ZM196.964 30.779H199.439V33.254H196.964V30.779ZM196.964 28.3041H199.439V30.779H196.964V28.3041ZM196.964 25.8292H199.439V28.3041H196.964V25.8292ZM196.964 23.3542H199.439V25.8292H196.964V23.3542ZM199.439 23.3542H201.913V25.8292H199.439V23.3542ZM199.439 20.8793H201.913V23.3542H199.439V20.8793ZM199.439 18.4044H201.913V20.8793H199.439V18.4044ZM199.439 15.9295H201.913V18.4044H199.439V15.9295ZM196.964 15.9295H199.439V18.4044H196.964V15.9295ZM196.964 13.4545H199.439V15.9295H196.964V13.4545ZM196.964 18.4044H199.439V20.8793H196.964V18.4044ZM196.964 20.8793H199.439V23.3542H196.964V20.8793ZM199.439 13.4545H201.913V15.9295H199.439V13.4545ZM199.439 25.8292H201.913V28.3041H199.439V25.8292ZM199.439 28.3041H201.913V30.779H199.439V28.3041ZM199.439 30.779H201.913V33.254H199.439V30.779ZM199.439 33.254H201.913V35.7289H199.439V33.254ZM199.439 35.7289H201.913V38.2038H199.439V35.7289ZM201.913 18.4044H204.388V20.8793H201.913V18.4044ZM201.913 20.8793H204.388V23.3542H201.913V20.8793ZM204.388 20.8793H206.863V23.3542H204.388V20.8793ZM204.388 23.3542H206.863V25.8292H204.388V23.3542ZM206.863 23.3542H209.338V25.8292H206.863V23.3542ZM206.863 25.8292H209.338V28.3041H206.863V25.8292ZM209.338 23.3542H211.813V25.8292H209.338V23.3542ZM209.338 20.8793H211.813V23.3542H209.338V20.8793ZM211.813 20.8793H214.288V23.3542H211.813V20.8793ZM211.813 18.4044H214.288V20.8793H211.813V18.4044ZM214.288 13.4545H216.763V15.9295H214.288V13.4545ZM214.288 15.9295H216.763V18.4044H214.288V15.9295ZM214.288 18.4044H216.763V20.8793H214.288V18.4044ZM214.288 20.8793H216.763V23.3542H214.288V20.8793ZM214.288 23.3542H216.763V25.8292H214.288V23.3542ZM214.288 25.8292H216.763V28.3041H214.288V25.8292ZM214.288 28.3041H216.763V30.779H214.288V28.3041ZM214.288 30.779H216.763V33.254H214.288V30.779ZM214.288 33.254H216.763V35.7289H214.288V33.254ZM214.288 35.7289H216.763V38.2038H214.288V35.7289ZM216.763 35.7289H219.238V38.2038H216.763V35.7289ZM216.763 33.254H219.238V35.7289H216.763V33.254ZM216.763 30.779H219.238V33.254H216.763V30.779ZM216.763 28.3041H219.238V30.779H216.763V28.3041ZM216.763 25.8292H219.238V28.3041H216.763V25.8292ZM216.763 23.3542H219.238V25.8292H216.763V23.3542ZM216.763 20.8793H219.238V23.3542H216.763V20.8793ZM216.763 18.4044H219.238V20.8793H216.763V18.4044ZM216.763 15.9295H219.238V18.4044H216.763V15.9295ZM216.763 13.4545H219.238V15.9295H216.763V13.4545ZM201.913 15.9295H204.388V18.4044H201.913V15.9295ZM204.388 18.4044H206.863V20.8793H204.388V18.4044ZM206.863 20.8793H209.338V23.3542H206.863V20.8793ZM209.338 18.4044H211.813V20.8793H209.338V18.4044ZM211.813 15.9295H214.288V18.4044H211.813V15.9295Z" fill="white"/>
<path d="M222.656 13.4545H225.131V15.9295H222.656V13.4545ZM225.131 13.4545H227.606V15.9295H225.131V13.4545ZM225.131 15.9295H227.606V18.4044H225.131V15.9295ZM225.131 18.4044H227.606V20.8793H225.131V18.4044ZM225.131 20.8793H227.606V23.3542H225.131V20.8793ZM222.656 20.8793H225.131V23.3542H222.656V20.8793ZM222.656 18.4044H225.131V20.8793H222.656V18.4044ZM222.656 15.9295H225.131V18.4044H222.656V15.9295ZM222.656 23.3542H225.131V25.8292H222.656V23.3542ZM222.656 25.8292H225.131V28.3041H222.656V25.8292ZM222.656 28.3041H225.131V30.779H222.656V28.3041ZM225.131 25.8292H227.606V28.3041H225.131V25.8292ZM225.131 23.3542H227.606V25.8292H225.131V23.3542ZM225.131 28.3041H227.606V30.779H225.131V28.3041ZM225.131 30.779H227.606V33.254H225.131V30.779ZM222.656 33.254H225.131V35.7289H222.656V33.254ZM222.656 30.779H225.131V33.254H222.656V30.779ZM222.656 35.7289H225.131V38.2038H222.656V35.7289ZM225.131 35.7289H227.606V38.2038H225.131V35.7289ZM225.131 33.254H227.606V35.7289H225.131V33.254ZM227.606 35.7289H230.081V38.2038H227.606V35.7289ZM230.081 35.7289H232.556V38.2038H230.081V35.7289ZM232.556 35.7289H235.031V38.2038H232.556V35.7289ZM232.556 33.254H235.031V35.7289H232.556V33.254ZM230.081 33.254H232.556V35.7289H230.081V33.254ZM227.606 33.254H230.081V35.7289H227.606V33.254ZM227.606 13.4545H230.081V15.9295H227.606V13.4545ZM230.081 13.4545H232.556V15.9295H230.081V13.4545ZM232.556 13.4545H235.031V15.9295H232.556V13.4545ZM235.031 13.4545H237.506V15.9295H235.031V13.4545ZM232.556 15.9295H235.031V18.4044H232.556V15.9295ZM230.081 15.9295H232.556V18.4044H230.081V15.9295ZM227.606 15.9295H230.081V18.4044H227.606V15.9295ZM227.606 25.8292H230.081V28.3041H227.606V25.8292ZM230.081 23.3542H232.556V25.8292H230.081V23.3542ZM227.606 23.3542H230.081V25.8292H227.606V23.3542ZM230.081 25.8292H232.556V28.3041H230.081V25.8292ZM235.031 15.9295H237.506V18.4044H235.031V15.9295ZM235.031 33.254H237.506V35.7289H235.031V33.254ZM235.031 35.7289H237.506V38.2038H235.031V35.7289ZM232.556 23.3542H235.031V25.8292H232.556V23.3542ZM232.556 25.8292H235.031V28.3041H232.556V25.8292Z" fill="white"/>
<path d="M31.7362 23.1867H37.5858V29.1771H31.7362V23.1867Z" fill="white"/>
<path d="M43.4353 23.1867H37.5858V29.1771H43.4353V23.1867Z" fill="white"/>
<path d="M28.9172 19.4514H34.7667V25.4419H28.9172V19.4514Z" fill="white"/>
<path d="M46.2543 19.4514H40.4048V25.4419H46.2543V19.4514Z" fill="white"/>
<path d="M26.0981 15.6457H31.9477V21.6362H26.0981V15.6457Z" fill="white"/>
<path d="M49.0734 15.6457H43.2238V21.6362H49.0734V15.6457Z" fill="white"/>
<path d="M23.2791 11.9105H29.1286V17.901H23.2791V11.9105Z" fill="white"/>
<path d="M51.9629 11.9105H46.1134V17.901H51.9629V11.9105Z" fill="white"/>
<path d="M23.2791 11.9105H29.1286V17.901H23.2791V11.9105Z" fill="white"/>
<path d="M51.9629 11.9105H46.1134V17.901H51.9629V11.9105Z" fill="white"/>
<path d="M23.2791 5.99048H29.1286V11.981H23.2791V5.99048Z" fill="white"/>
<path d="M29.1286 0H34.7667V5.99048H29.1286V0Z" fill="white"/>
<path d="M34.7667 0H40.4753V5.99048H34.7667V0Z" fill="white"/>
<path d="M40.4753 0H46.1134V5.99048H40.4753V0Z" fill="white"/>
<path d="M34.6209 5.99048H40.4705V11.981H34.6209V5.99048Z" fill="white"/>
<path d="M51.9629 5.99048H46.1134V11.981H51.9629V5.99048Z" fill="white"/>
<path d="M51.4344 31.1152V36.9648H45.444V31.1152H51.4344Z" fill="white"/>
<path d="M51.4344 42.8143V36.9648H45.444V42.8143H51.4344Z" fill="white"/>
<path d="M55.1697 28.2962V34.1457H49.1792V28.2962H55.1697Z" fill="white"/>
<path d="M55.1697 45.6333V39.7838H49.1792V45.6333H55.1697Z" fill="white"/>
<path d="M58.9754 25.4771V31.3267H52.9849V25.4771H58.9754Z" fill="white"/>
<path d="M58.9754 48.4524V42.6029H52.9849L52.9849 48.4524H58.9754Z" fill="white"/>
<path d="M62.7106 22.6581V28.5076H56.7201V22.6581H62.7106Z" fill="white"/>
<path d="M62.7106 51.3419V45.4924H56.7201V51.3419H62.7106Z" fill="white"/>
<path d="M62.7106 22.6581V28.5076H56.7201V22.6581H62.7106Z" fill="white"/>
<path d="M62.7106 51.3419V45.4924H56.7201V51.3419H62.7106Z" fill="white"/>
<path d="M68.6306 22.6581V28.5076H62.6401V22.6581H68.6306Z" fill="white"/>
<path d="M74.6211 28.5076V34.1457H68.6306V28.5076H74.6211Z" fill="white"/>
<path d="M74.6211 34.1457V39.8543H68.6306V34.1457H74.6211Z" fill="white"/>
<path d="M74.6211 39.8543V45.4924L68.6306 45.4924V39.8543H74.6211Z" fill="white"/>
<path d="M68.6305 34V39.8495H62.64V34H68.6305Z" fill="white"/>
<path d="M68.6306 51.3419V45.4924H62.6401V51.3419H68.6306Z" fill="white"/>
<path d="M31.7362 50.8133H37.5858V44.8229H31.7362V50.8133Z" fill="white"/>
<path d="M43.4353 50.8133H37.5858V44.8229H43.4353V50.8133Z" fill="white"/>
<path d="M28.9172 54.5486H34.7667V48.5581H28.9172V54.5486Z" fill="white"/>
<path d="M46.2543 54.5486H40.4048V48.5581H46.2543V54.5486Z" fill="white"/>
<path d="M26.0981 58.3543H31.9477V52.3638H26.0981V58.3543Z" fill="white"/>
<path d="M49.0734 58.3543H43.2238V52.3638H49.0734V58.3543Z" fill="white"/>
<path d="M23.2791 62.0895H29.1286V56.099H23.2791V62.0895Z" fill="white"/>
<path d="M51.9629 62.0895H46.1134V56.099H51.9629V62.0895Z" fill="white"/>
<path d="M23.2791 62.0895H29.1286V56.099H23.2791V62.0895Z" fill="white"/>
<path d="M51.9629 62.0895H46.1134V56.099H51.9629V62.0895Z" fill="white"/>
<path d="M23.2791 68.0095H29.1286V62.0191H23.2791V68.0095Z" fill="white"/>
<path d="M29.1286 74H34.7667V68.0095H29.1286V74Z" fill="white"/>
<path d="M34.7667 74H40.4753V68.0095H34.7667V74Z" fill="white"/>
<path d="M40.4753 74H46.1134V68.0095H40.4753V74Z" fill="white"/>
<path d="M34.6209 68.0095H40.4705V62.0191H34.6209V68.0095Z" fill="white"/>
<path d="M51.9629 68.0095H46.1134V62.0191H51.9629V68.0095Z" fill="white"/>
<path d="M23.8078 31.1152V36.9648H29.7982V31.1152H23.8078Z" fill="white"/>
<path d="M23.8078 42.8143V36.9648H29.7982V42.8143H23.8078Z" fill="white"/>
<path d="M20.0725 28.2962V34.1457H26.063L26.063 28.2962H20.0725Z" fill="white"/>
<path d="M20.0725 45.6333V39.7838H26.063V45.6333H20.0725Z" fill="white"/>
<path d="M16.2668 25.4772V31.3267L22.2573 31.3267V25.4772H16.2668Z" fill="white"/>
<path d="M16.2668 48.4524L16.2668 42.6029H22.2573V48.4524H16.2668Z" fill="white"/>
<path d="M12.5316 22.6581V28.5076H18.522V22.6581H12.5316Z" fill="white"/>
<path d="M12.5316 51.3419V45.4924H18.522V51.3419H12.5316Z" fill="white"/>
<path d="M12.5316 22.6581V28.5076H18.522V22.6581H12.5316Z" fill="white"/>
<path d="M12.5316 51.3419V45.4924H18.522V51.3419H12.5316Z" fill="white"/>
<path d="M6.61157 22.6581L6.61157 28.5076H12.602V22.6581H6.61157Z" fill="white"/>
<path d="M0.621094 28.5076L0.621094 34.1457H6.61157V28.5076H0.621094Z" fill="white"/>
<path d="M0.621094 34.1457L0.621094 39.8543H6.61157V34.1457H0.621094Z" fill="white"/>
<path d="M0.621094 39.8543L0.621094 45.4924H6.61157V39.8543H0.621094Z" fill="white"/>
<path d="M6.61172 34V39.8495H12.6022V34H6.61172Z" fill="white"/>
<path d="M6.61157 51.3419V45.4924H12.602L12.602 51.3419H6.61157Z" fill="white"/>
</svg>
